<svg width="252" height="252" viewBox="0 0 252 252" fill="none" xmlns="http://www.w3.org/2000/svg">
<path d="M204.49 100.36C193.52 89.39 177.63 86.265 163.855 90.975L199.445 55.385L196.615 52.555L146.015 103.155H151.675C165.47 89.4 187.88 89.41 201.66 103.185C215.45 116.975 215.45 139.42 201.66 153.21L178.865 176.03L167.94 165.105L194.78 138.265L174.71 118.195L174.035 121.055L191.245 138.265L166.175 163.335L151.635 148.795H145.975L196.62 199.44L199.45 196.61L181.695 178.855L204.49 156.035C219.835 140.69 219.835 115.71 204.49 100.36ZM100.375 148.8L100.355 148.82C86.5651 162.6 64.1301 162.6 50.3451 148.81C36.5551 135.02 36.5551 112.58 50.3451 98.785L73.1401 75.965L84.0651 86.89L57.2251 113.73L77.7901 134.295L78.4551 131.425L60.7601 113.73L85.8301 88.66L100.325 103.155H105.985L55.3851 52.555L52.5551 55.385L70.3101 73.14L47.5101 95.96C32.1601 111.31 32.1601 136.29 47.5101 151.64C58.4801 162.61 74.3701 165.735 88.1451 161.025L52.5551 196.615L55.3851 199.445L106.03 148.8H100.375ZM171.545 120.7L165.28 125.745L169.375 130.67L167.065 140.405L159.3 146.3H148.67L150.895 136.845H153.16L154.605 130.625H148.285L150.605 120.595H156.865L158.195 115.12H153.375L155.57 105.66H168.785L173.71 111.575L171.545 120.7ZM145 136.845H147.85L145.625 146.3H137.74L107.095 115.155H104.26L106.405 105.66H114.335L145 136.845ZM94.4601 136.88H99.2851L97.0851 146.3H83.8551L78.9501 140.345L81.1701 130.765L87.4751 125.705L83.3801 120.78L85.6151 111.59L93.3151 105.655H103.365L101.14 115.23H99.4901L98.1451 120.79H104.465L102.145 130.825H95.8851L94.4601 136.88ZM115.45 128.01L123.225 135.83L112.695 146.3H100.095L102.295 136.88H106.455L115.45 128.01ZM136.57 123.93L128.79 116.155L139.39 105.66H152.525L150.325 115.12H145.605L136.57 123.93ZM114.745 60.91C114.36 54.265 112.055 47.98 108.105 42.705C112.4 38.9 117.92 36.445 124 36V60.91H114.745ZM143.895 42.705C139.6 38.9 134.08 36.445 128 36V60.91H137.255C137.64 54.265 139.945 47.985 143.895 42.705ZM110.735 64.91H99.0801C99.5051 70.71 101.76 76 105.275 80.205C108.48 75.725 110.365 70.465 110.735 64.91ZM110.735 60.91C110.37 55.355 108.48 50.095 105.275 45.615C101.656 49.9369 99.4888 55.2879 99.0801 60.91H110.735ZM137.255 64.91H128V89.82C134.08 89.375 139.6 86.92 143.895 83.115C139.945 77.84 137.64 71.555 137.255 64.91ZM141.27 60.91H152.925C152.516 55.2879 150.349 49.9369 146.73 45.615C143.525 50.095 141.635 55.355 141.27 60.91ZM141.27 64.91C141.635 70.465 143.525 75.725 146.73 80.205C150.347 75.8819 152.514 70.5316 152.925 64.91H141.27ZM124 64.91H114.745C114.36 71.555 112.055 77.84 108.105 83.115C112.405 86.92 117.92 89.375 124 89.82V64.91ZM128 191.09V216C134.08 215.555 139.6 213.1 143.895 209.295C139.94 204.015 137.64 197.735 137.255 191.09H128ZM108.105 209.295C112.4 213.1 117.92 215.555 124 216V191.09H114.745C114.36 197.735 112.055 204.015 108.105 209.295ZM141.265 187.09H152.92C152.511 181.468 150.344 176.117 146.725 171.795C143.52 176.275 141.635 181.535 141.265 187.09ZM141.265 191.09C141.63 196.645 143.52 201.905 146.725 206.385C150.344 202.063 152.511 196.712 152.92 191.09H141.265ZM114.745 187.09H124V162.18C117.92 162.625 112.4 165.08 108.105 168.885C112.055 174.16 114.36 180.445 114.745 187.09ZM110.73 191.09H99.0751C99.5001 196.89 101.755 202.18 105.27 206.385C108.475 201.905 110.365 196.645 110.73 191.09ZM110.73 187.09C110.365 181.535 108.475 176.275 105.27 171.795C101.653 176.118 99.4861 181.468 99.0751 187.09H110.73ZM128 187.09H137.255C137.64 180.445 139.945 174.16 143.895 168.885C139.595 165.08 134.08 162.625 128 162.18V187.09Z" fill="black"/>
</svg>
