<svg width="252" height="252" viewBox="0 0 252 252" fill="none" xmlns="http://www.w3.org/2000/svg">
<path d="M46.285 139.835L44.445 137.995L47.79 130.365L50.395 132.97L46.285 139.835ZM73.53 91.3848L51.77 69.6248L69.61 51.7798L91.37 73.5398L89.6 75.3098L85.6 71.3098L79.33 77.5798L83.33 81.5798L81.56 83.3498L77.56 79.3498L71.29 85.6198L75.29 89.6198L73.53 91.3848ZM77.61 63.3148L71.34 69.5848L77.57 75.8148L83.84 69.5448L77.61 63.3148ZM63.345 61.5898L69.575 67.8198L75.845 61.5498L69.615 55.3248L63.345 61.5898ZM61.535 75.8548L67.805 69.5848L61.575 63.3548L55.305 69.6248L61.535 75.8548ZM69.53 83.8498L75.8 77.5798L69.57 71.3498L63.3 77.6198L69.53 83.8498ZM54.665 151.75L43.395 140.48L41.625 142.25L52.895 153.52L54.665 151.75ZM37.875 146C34.765 149.11 34.765 154.16 37.875 157.27C40.985 160.38 46.035 160.38 49.145 157.27L51.13 155.285L39.86 144.015L37.875 146ZM66.1 106.715L64.16 101.005C64.0425 100.652 63.82 100.344 63.5224 100.122C63.2248 99.8991 62.8663 99.7728 62.495 99.7598C61.725 99.7298 61.025 100.165 60.715 100.875L48.865 127.91L51.715 130.76L66.1 106.715ZM68.095 104.81L119 53.9048L117.23 52.1348L67.195 102.175L68.095 104.81ZM87.3 126.775L86.665 121.055C86.6258 120.671 86.4626 120.31 86.2001 120.026C85.9376 119.743 85.5901 119.553 85.21 119.485L78.595 118.295L58.92 137.97L62.54 141.59L87.3 126.775ZM48.105 141.655L49.9 143.45L55.385 137.965L52.21 134.79L48.105 141.655ZM74.065 108.455L68.345 107.82L53.53 132.575L57.15 136.195L76.825 116.52L75.635 109.905C75.5 109.135 74.855 108.535 74.065 108.455ZM92.95 127.925L166.97 53.9048L165.2 52.1348L90.31 127.03L92.95 127.925ZM60.33 142.91L57.155 139.735L51.67 145.22L53.465 147.015L60.33 142.91ZM64.76 147.34L62.155 144.735L55.29 148.84L57.13 150.68L64.76 147.34ZM113.59 99.2948L115.36 97.5248L109.59 91.7548L91.75 109.6L97.52 115.37L99.29 113.6L95.29 109.6L101.56 103.33L105.56 107.33L107.33 105.56L103.33 101.56L109.6 95.2898L113.59 99.2948ZM81.52 95.8398L79.75 97.6098L85.515 103.375L103.36 85.5298L97.595 79.7648L95.825 81.5348L99.825 85.5348L93.555 91.8048L89.555 87.8048L87.785 89.5748L91.785 93.5748L85.515 99.8448L81.52 95.8398ZM94.25 134.41C94.5943 134.261 94.8853 134.011 95.0844 133.693C95.2835 133.375 95.3814 133.005 95.365 132.63C95.3519 132.258 95.2257 131.9 95.0032 131.602C94.7807 131.305 94.4725 131.082 94.12 130.965L88.41 129.025L64.365 143.41L67.215 146.26L94.25 134.41ZM79.255 115.87L80.755 116.14L142.99 53.9048L141.22 52.1348L78.985 114.37L79.255 115.87ZM169.555 155.26L171.325 153.49L165.56 147.725L147.715 165.57L153.48 171.335L155.25 169.565L151.25 165.565L157.52 159.295L161.52 163.295L163.29 161.525L159.29 157.525L165.56 151.255L169.555 155.26ZM182.985 146.29L132.075 197.195L133.845 198.965L183.88 148.93L182.985 146.29ZM137.49 151.805L135.72 153.575L141.49 159.345L159.33 141.5L153.56 135.73L151.79 137.5L155.79 141.5L149.52 147.77L145.52 143.77L143.75 145.54L147.75 149.54L141.48 155.81L137.49 151.805ZM177.55 159.715L199.31 181.475L181.47 199.32L159.71 177.56L161.48 175.79L165.48 179.79L171.75 173.52L167.75 169.52L169.52 167.75L173.52 171.75L179.79 165.48L175.79 161.48L177.55 159.715ZM173.47 187.785L179.74 181.515L173.51 175.285L167.24 181.555L173.47 187.785ZM187.735 189.515L181.505 183.285L175.235 189.555L181.465 195.78L187.735 189.515ZM189.545 175.25L183.275 181.52L189.5 187.745L195.77 181.475L189.545 175.25ZM181.55 167.25L175.28 173.52L181.51 179.75L187.78 173.48L181.55 167.25ZM171.825 135.23L170.325 134.96L108.09 197.195L109.86 198.965L172.095 136.73L171.825 135.23ZM184.98 144.39L186.92 150.1C187.165 150.825 187.82 151.315 188.585 151.345C189.355 151.375 190.055 150.94 190.365 150.23L202.215 123.195L199.365 120.345L184.98 144.39ZM196.415 99.3498L207.685 110.62L209.45 108.85L198.18 97.5798L196.415 99.3498ZM213.205 93.8298C210.095 90.7198 205.045 90.7198 201.935 93.8298L199.95 95.8148L211.22 107.085L213.205 105.1C216.315 101.985 216.315 96.9398 213.205 93.8298ZM200.69 118.135L203.295 120.74L206.64 113.11L204.8 111.27L200.69 118.135ZM118.03 135.885L54.955 198.965L52.125 196.135L115.205 133.055L103.74 121.59L105.51 119.82L109.51 123.82L115.78 117.55L111.78 113.55L113.55 111.78L117.55 115.78L123.82 109.51L119.82 105.51L121.59 103.74L133.055 115.205L196.135 52.1248L198.965 54.9548L135.875 118.045L147.34 129.51L145.57 131.28L141.57 127.28L135.3 133.55L139.3 137.55L137.53 139.32L133.53 135.32L127.26 141.59L131.26 145.59L129.5 147.35L118.03 135.885ZM131.765 133.545L126.065 127.845L119.795 134.115L125.495 139.815L131.765 133.545ZM127.835 126.08L133.535 131.78L139.805 125.51L134.105 119.81L127.835 126.08ZM119.31 117.555L125.005 123.25L131.275 116.98L125.58 111.285L119.31 117.555ZM116.97 131.29L123.24 125.02L117.545 119.325L111.275 125.595L116.97 131.29ZM165.865 131.615L172.48 132.805L192.155 113.13L188.535 109.51L163.78 124.325L164.415 130.045C164.452 130.429 164.614 130.79 164.876 131.074C165.138 131.357 165.485 131.547 165.865 131.615ZM158.13 123.175L84.105 197.195L85.875 198.965L160.77 124.07L158.13 123.175ZM156.825 116.69C156.481 116.839 156.19 117.088 155.991 117.406C155.791 117.724 155.694 118.095 155.71 118.47C155.723 118.841 155.849 119.2 156.072 119.497C156.294 119.795 156.602 120.017 156.955 120.135L162.665 122.075L186.71 107.69L183.86 104.84L156.825 116.69ZM186.32 103.765L188.925 106.37L195.79 102.265L193.95 100.425L186.32 103.765ZM177.01 142.645L182.73 143.28L197.545 118.525L193.925 114.905L174.25 134.58L175.44 141.195C175.575 141.965 176.225 142.565 177.01 142.645ZM190.745 108.19L193.92 111.365L199.405 105.88L197.61 104.085L190.745 108.19ZM202.975 109.445L201.18 107.65L195.695 113.135L198.87 116.31L202.975 109.445Z" fill="white"/>
</svg>
