<svg width="252" height="252" viewBox="0 0 252 252" fill="none" xmlns="http://www.w3.org/2000/svg">
<path d="M114.745 60.91C114.36 54.265 112.055 47.98 108.105 42.705C112.4 38.9 117.92 36.445 124 36V60.91H114.745ZM143.895 42.705C139.6 38.9 134.08 36.445 128 36V60.91H137.255C137.64 54.265 139.945 47.985 143.895 42.705ZM110.735 64.91H99.0801C99.5051 70.71 101.76 76 105.275 80.205C108.48 75.725 110.365 70.465 110.735 64.91ZM110.735 60.91C110.37 55.355 108.48 50.095 105.275 45.615C101.656 49.9369 99.4888 55.2879 99.0801 60.91H110.735ZM137.255 64.91H128V89.82C134.08 89.375 139.6 86.92 143.895 83.115C139.945 77.84 137.64 71.555 137.255 64.91ZM141.27 60.91H152.925C152.516 55.2879 150.349 49.9369 146.73 45.615C143.525 50.095 141.635 55.355 141.27 60.91ZM141.27 64.91C141.635 70.465 143.525 75.725 146.73 80.205C150.347 75.8819 152.514 70.5316 152.925 64.91H141.27ZM124 64.91H114.745C114.36 71.555 112.055 77.84 108.105 83.115C112.405 86.92 117.92 89.375 124 89.82V64.91ZM128 191.09V216C134.08 215.555 139.6 213.1 143.895 209.295C139.94 204.015 137.64 197.735 137.255 191.09H128ZM108.105 209.295C112.4 213.1 117.92 215.555 124 216V191.09H114.745C114.36 197.735 112.055 204.015 108.105 209.295ZM141.265 187.09H152.92C152.511 181.468 150.344 176.117 146.725 171.795C143.52 176.275 141.635 181.535 141.265 187.09ZM141.265 191.09C141.63 196.645 143.52 201.905 146.725 206.385C150.344 202.063 152.511 196.712 152.92 191.09H141.265ZM114.745 187.09H124V162.18C117.92 162.625 112.4 165.08 108.105 168.885C112.055 174.16 114.36 180.445 114.745 187.09ZM110.73 191.09H99.0751C99.5001 196.89 101.755 202.18 105.27 206.385C108.475 201.905 110.365 196.645 110.73 191.09ZM110.73 187.09C110.365 181.535 108.475 176.275 105.27 171.795C101.653 176.118 99.4861 181.468 99.0751 187.09H110.73ZM128 187.09H137.255C137.64 180.445 139.945 174.16 143.895 168.885C139.595 165.08 134.08 162.625 128 162.18V187.09ZM204.485 156.03L181.685 178.84L199.44 196.585L196.61 199.415L126 128.83L103.19 151.63C103.185 151.635 103.18 151.635 103.18 151.64L55.3851 199.415L52.5551 196.585L88.1451 161.01C74.3701 165.72 58.4801 162.595 47.5101 151.63C32.1601 136.285 32.1601 111.315 47.5101 95.97L70.3101 73.16L52.5551 55.415L55.3851 52.585L126 123.17L196.615 52.585L199.445 55.415L163.855 90.99C177.63 86.28 193.52 89.405 204.49 100.37C219.835 115.715 219.835 140.685 204.485 156.03ZM85.8351 88.68L60.7651 113.74L85.4201 138.385L110.49 113.325L85.8351 88.68ZM62.7151 119.235C58.1951 123.995 58.2551 131.54 62.9301 136.21C67.6001 140.88 75.1501 140.945 79.9151 136.425L62.7151 119.235ZM123.17 126L112.255 115.09L85.4151 141.92L81.6801 138.2C75.9401 143.695 66.8001 143.625 61.1551 137.98C55.5101 132.335 55.4401 123.2 60.9351 117.465L57.2201 113.74L84.0601 86.91L73.1351 75.99L50.3401 98.8C36.5501 112.585 36.5501 135.015 50.3401 148.8C64.1301 162.58 86.5601 162.585 100.35 148.81L123.17 126ZM166.165 163.32L191.235 138.26L166.58 113.615L141.51 138.675L166.165 163.32ZM189.285 132.77C193.805 128.01 193.745 120.46 189.07 115.79C184.4 111.12 176.845 111.055 172.085 115.575L189.285 132.77ZM128.83 126L139.745 136.91L166.585 110.08L170.315 113.805C176.055 108.31 185.195 108.375 190.84 114.02C196.485 119.665 196.555 128.8 191.055 134.54L194.775 138.265L167.935 165.095L178.86 176.015L201.655 153.205C215.445 139.42 215.445 116.99 201.655 103.205C187.865 89.42 165.425 89.42 151.635 103.205L128.83 126Z" fill="white"/>
</svg>
