<svg width="252" height="252" viewBox="0 0 252 252" fill="none" xmlns="http://www.w3.org/2000/svg">
<path d="M82.5801 166.595L85.4101 169.425L55.4151 199.42L52.5851 196.59L82.5801 166.595ZM166.595 169.42L196.59 199.415L199.42 196.585L169.425 166.59L166.595 169.42ZM199.415 55.415L196.585 52.585L178.73 70.44L181.56 73.27L199.415 55.415ZM85.4051 82.58L55.4101 52.585L52.5801 55.415L82.5751 85.41L85.4051 82.58ZM98.8101 100.06C98.5991 99.743 98.4779 99.3748 98.4594 98.9945C98.4409 98.6142 98.5258 98.2359 98.7051 97.9C98.8847 97.5643 99.1521 97.2836 99.4789 97.0881C99.8056 96.8926 100.179 96.7896 100.56 96.79H121.355C121.989 96.79 122.597 97.0418 123.045 97.49C123.493 97.9382 123.745 98.5461 123.745 99.18C123.745 100.21 123.09 101.12 122.11 101.445L114.59 103.95L115.96 110.115L156.78 101.015L158.095 106.915L121.18 133.6L122.905 141.35L119 142.22L117.34 134.75H82.7001L81.6251 131.065L95.6351 122.125C92.5601 118.385 87.9051 115.995 82.7001 115.995C73.4651 115.995 65.9501 123.51 65.9501 132.75C65.9501 141.99 73.4651 149.505 82.7001 149.505C90.3751 149.505 96.8601 144.31 98.8301 137.25H107.035C104.92 148.77 94.8301 157.505 82.7001 157.505C69.0301 157.505 57.9501 146.42 57.9501 132.75C57.9501 119.08 69.0301 107.995 82.7001 107.995C94.8301 107.995 104.92 116.73 107.035 128.25H98.8301C98.5651 127.295 98.2101 126.375 97.7901 125.495L89.5551 130.75H116.45L113.11 115.72L106.68 119.825C106.045 118.645 105.32 117.525 104.52 116.455L112.185 111.565L110.775 105.22L110.495 105.315C109.54 105.635 108.555 105.785 107.585 105.785C104.555 105.785 101.625 104.29 99.8751 101.67L98.8101 100.06ZM116.83 114.02L120.235 129.35L152.415 106.085L116.83 114.02ZM124.125 184.545L120.2 180.045C117.252 183.161 115.067 186.917 113.815 191.02H122.87L124.535 187.52C125.005 186.54 124.84 185.37 124.125 184.545ZM112.875 170.6C112.875 170.6 111.53 173.325 113.45 177.035H120.88L126.005 182.905C126.677 183.675 127.109 184.625 127.249 185.638C127.388 186.65 127.229 187.682 126.79 188.605L126.035 190.185L149.555 203.5C150.9 201.17 151.99 198.24 152.395 194.42L123.335 165.36L112.875 170.6ZM113.17 193.525H113.16C113.16 193.525 112.515 196.49 112.59 199.17H103.91L98.1201 202.265L112.595 207.21C116.335 208.49 120 209.98 123.54 211.735C126.935 213.42 132.7 215.645 139.96 216C140.51 214.095 141.64 212.45 143.345 210.74C144.44 209.645 145.845 208.395 147.23 206.77L123.825 193.52H113.17V193.525ZM166.25 133.185L170.155 132.315L166.54 116.08C167.085 116.025 167.64 115.995 168.2 115.995C177.435 115.995 184.95 123.51 184.95 132.75C184.95 141.99 177.435 149.505 168.2 149.505C158.965 149.505 151.45 141.99 151.45 132.75C151.45 126.275 155.145 120.65 160.535 117.86L158.755 109.865C149.775 113.58 143.45 122.425 143.45 132.75C143.45 146.42 154.53 157.505 168.2 157.505C181.87 157.505 192.95 146.42 192.95 132.75C192.95 119.08 181.87 107.995 168.2 107.995C167.045 107.995 165.91 108.085 164.795 108.24L161.575 93.77L168.065 92.325L161.935 64.785L158.03 65.655L163.29 89.29L156.8 90.735L166.25 133.185ZM139.125 81.4C139.125 81.4 140.47 78.675 138.55 74.965H131.12L125.995 69.095C125.323 68.3249 124.89 67.3747 124.752 66.3618C124.613 65.3488 124.774 64.3175 125.215 63.395L125.97 61.815L102.45 48.5C101.105 50.83 100.015 53.76 99.6101 57.58L128.67 86.64L139.125 81.4ZM127.875 67.455L131.8 71.955C134.748 68.8393 136.934 65.0826 138.185 60.98H129.13L127.465 64.48C127.235 64.9617 127.151 65.5002 127.224 66.0289C127.297 66.5577 127.523 67.0535 127.875 67.455ZM138.83 58.475H138.84C138.84 58.475 139.485 55.51 139.41 52.83H148.09L153.88 49.735L139.405 44.79C135.665 43.51 132 42.02 128.46 40.265C125.065 38.58 119.3 36.355 112.04 36C111.49 37.905 110.36 39.55 108.655 41.26C107.56 42.355 106.155 43.605 104.77 45.23L128.175 58.48H138.83V58.475Z" fill="white"/>
</svg>
