<svg width="252" height="252" viewBox="0 0 252 252" fill="none" xmlns="http://www.w3.org/2000/svg">
<g clip-path="url(#clip0_733_213)">
<path d="M167.91 165.085L199.41 196.585L196.58 199.415L165.08 167.915L161.58 164.415L164.41 161.585L167.91 165.085ZM174.815 135.455L175.64 137.815C186.42 134.045 194.475 124.76 196.665 113.58L194.21 113.1C192.195 123.41 184.76 131.975 174.815 135.455ZM147.865 183.29C150.07 187.325 151.175 193.27 148.115 199.72H145.455C145.124 199.72 144.806 199.852 144.571 200.086C144.337 200.32 144.205 200.638 144.205 200.97C144.205 201.301 144.337 201.619 144.571 201.854C144.806 202.088 145.124 202.22 145.455 202.22H146.72C146.017 203.316 145.237 204.36 144.385 205.345C144.429 205.082 144.388 204.812 144.267 204.574C144.147 204.337 143.954 204.143 143.717 204.023C143.479 203.902 143.209 203.861 142.946 203.904C142.683 203.948 142.441 204.074 142.255 204.265L139.45 207.16C138.97 207.655 138.98 208.445 139.475 208.93C139.725 209.175 140.055 209.29 140.38 209.28C139.363 210.141 138.309 210.957 137.22 211.725C137.215 211.73 137.205 211.735 137.2 211.74V210.465C137.2 210.133 137.068 209.815 136.834 209.581C136.6 209.347 136.282 209.215 135.95 209.215C135.619 209.215 135.301 209.347 135.066 209.581C134.832 209.815 134.7 210.133 134.7 210.465V213.325C127.145 217.605 120.915 216.23 115.355 212.75L116.18 211.775C116.625 211.25 116.56 210.46 116.03 210.015C115.905 209.909 115.76 209.829 115.603 209.779C115.447 209.729 115.282 209.71 115.119 209.724C114.955 209.738 114.796 209.784 114.651 209.86C114.505 209.936 114.376 210.039 114.27 210.165L113.275 211.34C111.875 210.315 110.51 209.18 109.175 207.995L118.295 197.2C120.435 194.58 117.24 193.29 117.09 192.075C116.93 190.76 117.41 189.75 118.07 189.03V177.04L112.995 167.895L115.18 166.68L120.055 175.465H131.125C133.085 174.045 135.87 173.035 137.935 173.97C137.95 173.97 144.315 176.805 147.865 183.29ZM128.905 177.97H120.58V187.565L125.43 188.92C127.885 189.565 130.155 189.855 131.4 188.02C132.485 186.425 133.045 185.38 133.575 183.83C134.555 180.96 129.98 178.69 128.905 177.97ZM142.06 181.16C141.935 181.054 141.79 180.974 141.633 180.924C141.477 180.874 141.312 180.855 141.149 180.869C140.985 180.883 140.826 180.929 140.681 181.005C140.535 181.081 140.406 181.184 140.3 181.31L137.35 184.805C136.905 185.33 136.97 186.12 137.5 186.565C138.025 187.01 138.815 186.945 139.26 186.415L142.21 182.92C142.655 182.39 142.59 181.605 142.06 181.16ZM199.42 55.3849L196.59 52.5549L168.77 80.3749C170.33 80.5949 171.87 80.9499 173.37 81.4349L199.42 55.3849ZM104.125 68.7099C101.92 64.6749 100.815 58.7299 103.875 52.2799H106.535C106.867 52.2799 107.185 52.1482 107.419 51.9138C107.653 51.6794 107.785 51.3614 107.785 51.0299C107.785 50.6984 107.653 50.3805 107.419 50.146C107.185 49.9116 106.867 49.7799 106.535 49.7799H105.27C105.93 48.7449 106.705 47.6999 107.605 46.6549C107.561 46.9177 107.602 47.1877 107.723 47.4254C107.843 47.6632 108.036 47.8564 108.274 47.9769C108.511 48.0974 108.781 48.1389 109.044 48.0954C109.307 48.0519 109.549 47.9256 109.735 47.7349L112.54 44.8399C113.02 44.3449 113.01 43.5549 112.515 43.0699C112.265 42.8249 111.935 42.7099 111.61 42.7199C112.627 41.8586 113.681 41.0428 114.77 40.2749C114.775 40.2699 114.785 40.2649 114.79 40.2599V41.5349C114.79 41.8664 114.922 42.1844 115.156 42.4188C115.391 42.6532 115.709 42.7849 116.04 42.7849C116.372 42.7849 116.69 42.6532 116.924 42.4188C117.158 42.1844 117.29 41.8664 117.29 41.5349V38.6749C124.845 34.3949 131.075 35.7699 136.635 39.2499L135.81 40.2249C135.365 40.7499 135.43 41.5399 135.96 41.9849C136.485 42.4299 137.275 42.3649 137.72 41.8349L138.715 40.6599C140.115 41.6849 141.48 42.8199 142.815 44.0049L133.695 54.7999C131.555 57.4199 134.75 58.7099 134.9 59.9249C135.06 61.2399 134.58 62.2499 133.92 62.9699V74.9599L138.995 84.1049L136.81 85.3199L131.935 76.5349H120.85C118.89 77.9549 116.105 78.9649 114.04 78.0299C114.04 78.0299 107.675 75.1949 104.125 68.7099ZM123.085 74.0299H131.41V64.4349L126.56 63.0799C124.105 62.4349 121.835 62.1449 120.59 63.9799C119.505 65.5749 118.945 66.6199 118.415 68.1699C117.435 71.0399 122.01 73.3099 123.085 74.0299ZM109.93 70.8399C110.455 71.2849 111.245 71.2199 111.69 70.6899L114.64 67.1949C115.085 66.6699 115.02 65.8799 114.49 65.4349C114.365 65.3289 114.22 65.2486 114.063 65.1988C113.907 65.1489 113.742 65.1304 113.579 65.1444C113.415 65.1583 113.256 65.2044 113.111 65.28C112.965 65.3556 112.836 65.4592 112.73 65.5849L109.78 69.0799C109.335 69.6099 109.4 70.3949 109.93 70.8399ZM105.88 168.675L84.7801 130.65L81.2851 132.59L89.3551 147.135C88.8451 147.34 88.3251 147.525 87.7851 147.685C78.9301 150.305 69.5901 145.23 66.9701 136.37C64.3501 127.51 69.4201 118.17 78.2801 115.55C87.1351 112.93 96.4751 118.005 99.0951 126.865C100.93 133.075 98.9851 139.515 94.6101 143.72L98.5851 150.88C106.145 144.77 109.695 134.495 106.77 124.595C102.89 111.485 89.1201 104 76.0151 107.88C62.9101 111.76 55.4251 125.53 59.3051 138.64C63.1851 151.75 76.9551 159.235 90.0601 155.355C91.1701 155.025 92.2351 154.62 93.2551 154.155L100.445 167.115L94.6351 170.34L103.425 186.18L106.92 184.24L100.07 171.9L105.88 168.675ZM159.56 145.32C159.483 145.693 159.305 146.039 159.048 146.319C158.79 146.6 158.46 146.806 158.095 146.915L138.155 152.815C137.611 152.975 137.027 152.937 136.508 152.707C135.989 152.476 135.569 152.069 135.323 151.557C135.077 151.045 135.021 150.463 135.166 149.914C135.31 149.365 135.645 148.885 136.11 148.56L142.61 144.025L139.55 138.505L102.985 158.81L100.05 153.525L127.88 117.465L124.03 110.52L127.53 108.58L131.24 115.27L164.455 105.44L166.53 108.67L155.63 121.215C159.64 123.93 164.78 124.9 169.775 123.425C178.63 120.805 183.705 111.465 181.085 102.605C178.465 93.7449 169.125 88.6699 160.27 91.2899C152.91 93.4699 148.165 100.29 148.28 107.615L140.415 109.945C139.175 98.2949 146.37 87.0599 158.005 83.6199C171.11 79.7399 184.88 87.2249 188.76 100.335C192.64 113.445 185.155 127.215 172.05 131.095C160.415 134.535 148.27 129.025 142.97 118.575L150.835 116.245C151.358 117.077 151.954 117.862 152.615 118.59L159.02 111.215L133.23 118.845L140.695 132.31L145.7 126.55C146.643 127.494 147.654 128.368 148.725 129.165L142.76 136.03L145.915 141.715L146.155 141.545C146.98 140.97 147.88 140.54 148.81 140.265C151.72 139.405 154.95 140.005 157.37 142.025L158.855 143.265C159.445 143.775 159.72 144.56 159.56 145.32ZM137.605 135.01L129.99 121.275L105.73 152.71L137.605 135.01ZM108.725 116.635L110.88 115.37C106.88 108.54 100.555 103.425 93.0701 100.97L92.2901 103.345C99.2001 105.61 105.035 110.33 108.725 116.635ZM90.4101 87.5849L55.4101 52.5849L52.5801 55.4149L87.5801 90.4149L90.4101 87.5849ZM52.8501 196.425L55.6801 199.255L87.1801 167.755L84.3501 164.925L52.8501 196.425Z" fill="white"/>
</g>
<defs>
<clipPath id="clip0_733_213">
<rect width="252" height="252" fill="white"/>
</clipPath>
</defs>
</svg>
