<svg width="252" height="252" viewBox="0 0 252 252" fill="none" xmlns="http://www.w3.org/2000/svg">
<path d="M143.405 79.755C149.365 73.8 156.595 77.96 162.175 72.105C163.845 70.425 166.58 70.46 168.255 72.14L179.615 83.5C180.017 83.9014 180.336 84.378 180.553 84.9026C180.771 85.4272 180.882 85.9896 180.882 86.5575C180.882 87.1254 180.771 87.6878 180.553 88.2124C180.336 88.737 180.017 89.2136 179.615 89.615L169.48 99.75C169.4 99.64 161.065 91.365 160.99 91.255C156.755 87.02 149.735 86.865 145.66 91.255C143.965 93.08 141.005 94.56 138.685 92.695C136.505 91.055 135.03 87.985 137.32 85.77C139.91 83.21 143.365 79.79 143.405 79.755ZM147.36 93.44C143.845 97.06 139.17 97.435 135.77 93.36C129.24 98.755 128.34 108.7 134.475 114.755C141.525 123.035 150.72 129.4 160.41 120.59C165.31 115.57 174.42 109.185 167.46 101.71C162.18 96.86 154.905 85.665 147.36 93.44ZM175.245 166.755L216 126L181.385 91.385L178.555 94.215L208.345 124H199.41L179.325 103.915L177.555 105.685L195.875 124H186.94L179.33 116.39L177.56 118.16L185.4 126L177.555 133.845L179.325 135.615L186.935 128H195.87L177.555 146.315L179.325 148.085L199.41 128H208.345L172.415 163.93L175.245 166.755ZM182.205 82.555L194.475 70.285L181.3 57.455L169.2 69.55L182.205 82.555ZM124 43.655V52.59L103.915 72.675L105.685 74.445L124 56.125V65.06L116.39 72.67L118.16 74.44L126 66.6L133.845 74.445L135.615 72.675L128 65.065V56.13L146.315 74.445L148.085 72.675L128 52.59V43.655L156.915 72.57C158.16 72.15 159.295 71.5 160.365 70.38L160.375 70.37L126 36L85.245 76.755L88.075 79.585L124 43.655ZM52.585 55.415L196.585 199.415L199.415 196.585L55.415 52.585L52.585 55.415ZM104.64 158.56C108.155 154.94 112.83 154.565 116.23 158.64C122.76 153.245 123.66 143.3 117.525 137.245C110.475 128.965 101.28 122.6 91.59 131.41C86.69 136.43 77.58 142.815 84.54 150.29C89.82 155.14 97.095 166.335 104.64 158.56ZM128 208.345V199.41L148.085 179.325L146.315 177.555L128 195.875V186.94L135.61 179.33L133.84 177.56L126 185.4L118.155 177.555L116.385 179.325L124 186.935V195.87L105.685 177.555L103.915 179.325L124 199.41V208.345L95.085 179.43C93.84 179.85 92.705 180.5 91.635 181.62L91.625 181.63L126 216L166.755 175.245L163.925 172.415L128 208.345ZM76.755 85.245L36 126L70.615 160.615L73.445 157.785L43.655 128H52.59L72.675 148.085L74.445 146.315L56.125 128H65.06L72.67 135.61L74.44 133.84L66.6 126L74.445 118.155L72.675 116.385L65.065 124H56.125L74.44 105.685L72.67 103.915L52.59 124H43.655L79.585 88.07L76.755 85.245ZM69.795 169.445L57.525 181.715L70.7 194.545L82.795 182.45C82.77 182.42 69.825 169.475 69.795 169.445ZM114.675 166.23C116.965 164.015 115.49 160.945 113.31 159.305C110.99 157.44 108.035 158.915 106.335 160.745C102.265 165.13 95.24 164.975 91.005 160.745C90.93 160.635 82.595 152.36 82.515 152.25L72.38 162.385C71.9782 162.786 71.6594 163.263 71.4419 163.788C71.2245 164.312 71.1125 164.875 71.1125 165.443C71.1125 166.01 71.2245 166.573 71.4419 167.097C71.6594 167.622 71.9782 168.099 72.38 168.5L83.74 179.86C85.415 181.535 88.15 181.575 89.82 179.895C95.4 174.04 102.63 178.2 108.59 172.245C108.635 172.21 112.09 168.79 114.675 166.23Z" fill="white"/>
</svg>
