<svg width="252" height="252" viewBox="0 0 252 252" fill="none" xmlns="http://www.w3.org/2000/svg">
<path d="M59.2599 186.375C41.6899 166.985 34.0699 141.79 36.4099 117.365L38.8999 117.605C36.6299 141.315 44.0099 165.77 61.0299 184.605L59.2599 186.375ZM136.58 195.935C136.7 195.51 137.035 195.185 137.465 195.07C138.655 194.755 140.125 194.005 140.335 193.44C140.35 193.4 140.39 193.29 140.195 193.01C138.865 191.1 132.755 184.28 126.205 177.95C115.05 167.165 111.105 165.755 109.925 165.65C109.88 165.645 109.84 165.645 109.8 165.645C109.835 165.95 109.94 166.245 110.115 166.515C110.92 167.745 112.48 170.415 115.085 175.93C115.805 177.455 116.515 179.325 117.19 181.37H120.315C120.646 181.37 120.964 181.502 121.199 181.736C121.433 181.971 121.565 182.289 121.565 182.62C121.565 182.952 121.433 183.27 121.199 183.504C120.964 183.738 120.646 183.87 120.315 183.87H117.98C118.2 184.595 118.41 185.33 118.62 186.07H122.32C122.651 186.07 122.969 186.202 123.204 186.436C123.438 186.671 123.57 186.989 123.57 187.32C123.57 187.652 123.438 187.97 123.204 188.204C122.969 188.438 122.651 188.57 122.32 188.57H119.3C119.495 189.305 119.685 190.04 119.865 190.77H124.325C124.656 190.77 124.974 190.902 125.209 191.136C125.443 191.371 125.575 191.689 125.575 192.02C125.575 192.352 125.443 192.67 125.209 192.904C124.974 193.138 124.656 193.27 124.325 193.27H120.475C120.655 194.02 120.825 194.755 120.99 195.47H126.33C126.661 195.47 126.979 195.602 127.214 195.836C127.448 196.071 127.58 196.389 127.58 196.72C127.58 197.052 127.448 197.37 127.214 197.604C126.979 197.838 126.661 197.97 126.33 197.97H121.545C122.135 200.68 122.58 202.905 122.82 204.15C122.935 204.735 123.615 205 124.1 204.655C125.585 203.595 126.075 202.075 126.075 202.075C126.075 202.075 131.835 200.84 135.765 205.26C139.695 209.675 136.835 215.58 136.835 215.58C137.26 215.865 137.75 216.005 138.235 216.005C138.571 216.006 138.904 215.941 139.214 215.813C139.525 215.685 139.807 215.497 140.045 215.26C142.39 212.945 144.57 211.46 145.915 210.655C145.59 209.15 144.055 204.785 136.865 197.135C136.719 196.976 136.616 196.782 136.566 196.572C136.516 196.362 136.521 196.143 136.58 195.935ZM135.885 90.1801C138.3 90.7851 139.99 89.8051 141.075 88.7001C132.815 86.6001 111.965 63.5851 109.76 60.4151C108.985 59.3001 109.095 58.3201 109.325 57.6901C109.76 56.5101 110.96 55.7001 112.04 55.1901C106.225 48.7301 104.355 44.5701 103.76 42.4001C102.59 42.7751 100.53 43.4351 98.6749 43.9901C97.7449 44.2651 96.9999 44.9851 96.7249 45.9151C94.4949 53.4701 106.95 64.2051 114.1 71.8901C124.26 81.9351 131.14 88.9951 135.885 90.1801ZM115.42 56.0651C115.3 56.4901 114.965 56.8151 114.535 56.9301C113.345 57.2451 111.875 57.9951 111.665 58.5601C111.65 58.6001 111.61 58.7101 111.805 58.9901C113.135 60.9001 119.25 67.7201 125.795 74.0501C136.945 84.8351 140.895 86.2451 142.075 86.3501C142.12 86.3551 142.16 86.3551 142.2 86.3551C142.164 86.0446 142.056 85.7468 141.885 85.4851C141.08 84.2551 139.52 81.5851 136.915 76.0701C136.195 74.5451 135.485 72.6751 134.81 70.6301H131.685C131.353 70.6301 131.035 70.4984 130.801 70.264C130.567 70.0296 130.435 69.7117 130.435 69.3801C130.435 69.0486 130.567 68.7307 130.801 68.4963C131.035 68.2618 131.353 68.1301 131.685 68.1301H134.02C133.8 67.4051 133.59 66.6701 133.38 65.9301H129.68C129.348 65.9301 129.03 65.7984 128.796 65.564C128.562 65.3296 128.43 65.0117 128.43 64.6801C128.43 64.3486 128.562 64.0307 128.796 63.7962C129.03 63.5618 129.348 63.4301 129.68 63.4301H132.7C132.505 62.6951 132.315 61.9601 132.135 61.2301H127.675C127.343 61.2301 127.025 61.0984 126.791 60.864C126.557 60.6296 126.425 60.3117 126.425 59.9801C126.425 59.6486 126.557 59.3307 126.791 59.0962C127.025 58.8618 127.343 58.7301 127.675 58.7301H131.525C131.345 57.9801 131.175 57.2451 131.01 56.5301H125.665C125.333 56.5301 125.015 56.3984 124.781 56.164C124.547 55.9296 124.415 55.6117 124.415 55.2801C124.415 54.9486 124.547 54.6307 124.781 54.3963C125.015 54.1618 125.333 54.0301 125.665 54.0301H130.45C130.001 51.9751 129.576 49.9149 129.175 47.8501C129.06 47.2651 128.38 47.0001 127.895 47.3451C126.41 48.4051 125.92 49.9251 125.92 49.9251C125.92 49.9251 120.16 51.1601 116.23 46.7401C112.3 42.3201 115.16 36.4201 115.16 36.4201C114.735 36.1351 114.245 35.9951 113.76 35.9951C113.424 35.994 113.091 36.0592 112.781 36.1871C112.47 36.3149 112.188 36.5029 111.95 36.7401C109.605 39.0551 107.425 40.5401 106.08 41.3451C106.405 42.8501 107.94 47.2151 115.13 54.8651C115.43 55.1851 115.54 55.6401 115.42 56.0651ZM186.43 183.58L199.415 196.585L196.585 199.415L183.58 186.41C176.57 193.09 168.41 198.575 159.425 202.515C159.24 201.23 158.855 199.935 158.31 198.635C166.645 194.915 174.225 189.795 180.755 183.585L164.16 166.99C157.86 172.86 150.54 177.01 142.79 179.44C142.11 178.74 141.46 178.06 140.855 177.41C148.665 175.16 156.065 171.1 162.39 165.22L128.865 131.695C127.976 132.141 126.995 132.374 126 132.374C125.005 132.374 124.024 132.141 123.135 131.695L89.6099 165.22C95.9999 171.155 103.485 175.24 111.385 177.475C111.41 177.53 111.435 177.58 111.46 177.635C111.835 178.43 112.22 179.36 112.6 180.385C103.605 178.18 95.0499 173.715 87.8349 166.99L71.2449 183.58C83.9099 195.63 100.53 203.56 118.935 205.185C119.025 205.765 119.415 207.58 120.87 209.34C100.595 208.105 82.2499 199.6 68.4149 186.41L55.4099 199.415L52.5799 196.585L120.3 128.865C119.854 127.976 119.621 126.995 119.621 126C119.621 125.005 119.854 124.024 120.3 123.135L113.54 116.375C109.735 121.29 109.225 127.93 112.03 133.295L105.07 140.555C100.02 133.31 99.1499 124.04 102.485 116.105L100.18 115.135C96.4599 123.985 97.4849 134.355 103.265 142.36L100.055 145.57C93.9949 137.56 92.1249 127.385 94.4749 118.045L92.0499 117.435C89.4949 127.605 91.5599 138.695 98.2599 147.365L95.0649 150.56C88.5249 142.345 85.7199 132.135 86.6699 122.21L84.1799 121.97C83.1599 132.615 86.2049 143.565 93.2849 152.34L90.0799 155.545C78.8899 141.975 76.5699 123.545 83.1249 107.96L80.8199 106.99C73.8799 123.485 76.3799 143 88.3049 157.32L85.1199 160.505C70.0649 142.71 68.4649 117.42 80.3599 98.0451L78.2299 96.7401C65.7449 117.075 67.4649 143.645 83.3499 162.28L80.1549 165.475C65.8849 148.935 62.0249 126.52 68.6049 106.805L66.2349 106.01C59.3649 126.595 63.4249 150.01 78.3849 167.245L75.1949 170.435C60.1749 153.295 55.2799 130.38 60.5349 109.48L58.1099 108.87C52.6449 130.595 57.7599 154.42 73.4199 172.21L70.2349 175.395C50.7899 153.48 46.4699 122.86 57.3149 97.0901L55.0099 96.1201C43.7849 122.8 48.2799 154.51 68.4649 177.165L63.8649 181.765C34.8399 149.485 35.4249 100.045 65.5599 68.4251L52.5749 55.4201L55.4049 52.5901L68.4099 65.5951C75.4199 58.9151 83.5799 53.4351 92.5649 49.4901C92.7499 50.7751 93.1349 52.0701 93.6799 53.3701C85.3449 57.0901 77.7649 62.2101 71.2349 68.4201L87.8299 85.0151C94.1299 79.1451 101.45 74.9951 109.2 72.5701C109.88 73.2701 110.53 73.9501 111.135 74.6001C103.325 76.8501 95.9249 80.9101 89.5999 86.7851L123.125 120.31C124.92 119.405 127.055 119.405 128.855 120.31L162.38 86.7851C155.99 80.8501 148.505 76.7651 140.605 74.5301C140.58 74.4751 140.555 74.4251 140.525 74.3651C140.15 73.5701 139.765 72.6401 139.385 71.6201C148.38 73.8251 156.935 78.2901 164.15 85.0151L180.74 68.4251C168.075 56.3751 151.455 48.4451 133.05 46.8201C132.96 46.2401 132.57 44.4251 131.115 42.6651C151.39 43.9001 169.735 52.4051 183.57 65.5951L196.575 52.5901L199.405 55.4201L131.69 123.135C132.595 124.93 132.595 127.065 131.69 128.865L138.45 135.625C142.25 130.72 142.765 124.1 139.975 118.74L146.915 111.445C151.965 118.69 152.835 127.96 149.495 135.895L151.8 136.865C155.52 128.015 154.495 117.645 148.715 109.64L151.925 106.43C157.985 114.44 159.855 124.615 157.505 133.955L159.93 134.565C162.485 124.395 160.42 113.305 153.72 104.635L156.915 101.44C163.455 109.655 166.26 119.865 165.31 129.79L167.8 130.03C168.82 119.385 165.775 108.435 158.695 99.6651L161.9 96.4601C173.09 110.03 175.41 128.46 168.855 144.045L171.16 145.015C178.1 128.52 175.6 109.005 163.675 94.6851L166.86 91.5001C181.915 109.295 183.515 134.585 171.62 153.96L173.75 155.265C186.235 134.93 184.515 108.36 168.63 89.7251L171.825 86.5301C186.095 103.07 189.955 125.485 183.375 145.2L185.745 145.995C192.615 125.41 188.555 101.995 173.595 84.7601L176.785 81.5701C191.805 98.7101 196.7 121.625 191.445 142.525L193.87 143.135C199.335 121.41 194.22 97.5851 178.56 79.7951L181.745 76.6101C201.19 98.5251 205.51 129.145 194.665 154.915L196.97 155.885C208.195 129.205 203.7 97.4951 183.515 74.8401L188.115 70.2401C217.15 102.52 216.565 151.96 186.43 183.58ZM129.875 126C129.875 124.972 129.467 123.987 128.74 123.26C128.013 122.533 127.028 122.125 126 122.125C124.972 122.125 123.987 122.533 123.26 123.26C122.533 123.987 122.125 124.972 122.125 126C122.125 127.028 122.533 128.013 123.26 128.74C123.987 129.467 124.972 129.875 126 129.875C127.028 129.875 128.013 129.467 128.74 128.74C129.467 128.013 129.875 127.028 129.875 126ZM192.74 65.6251L190.97 67.3951C207.99 86.2351 215.37 110.69 213.1 134.395L215.59 134.635C217.93 110.21 210.31 85.0151 192.74 65.6251ZM116.115 161.82C113.7 161.215 112.01 162.195 110.925 163.3C119.19 165.405 140.035 188.415 142.24 191.585C143.015 192.7 142.905 193.68 142.675 194.31C142.24 195.49 141.04 196.3 139.96 196.81C145.775 203.27 147.645 207.43 148.24 209.6C149.41 209.225 151.47 208.565 153.325 208.01C154.255 207.73 155 207.015 155.275 206.085C157.505 198.53 145.05 187.795 137.9 180.11C127.74 170.065 120.86 163.005 116.115 161.82Z" fill="white"/>
</svg>
