<svg width="252" height="252" viewBox="0 0 252 252" fill="none" xmlns="http://www.w3.org/2000/svg">
<path d="M196.69 53.9499L128 112.555V82.2449L130.62 75.6949C134.685 65.5349 135.93 51.8549 133.65 42.4249C133.255 40.7849 132.1 38.1899 131.335 36.9699C130.84 36.1799 129.885 35.8249 128.96 36.0949C127.045 36.6449 119.5 44.1399 119.5 50.9999V60.0649C119.5 65.7899 120.415 71.4449 122.23 76.8749L124 82.1899V116.025C123.085 116.83 122.18 117.64 121.27 118.455L113.805 110.99L121.5 103.29V99.7549L112.04 109.215L104.285 101.46L121.5 84.2449V82.5849L121.03 81.1749L102.515 99.6899L94.76 91.9349L117.715 68.9799C117.545 67.9399 117.42 66.8999 117.31 65.8499L92.995 90.1649L85.24 82.4099L117.01 50.6399C117.095 47.7699 118.23 44.8249 119.795 42.1999L82.415 79.5799L55.415 52.5799L52.585 55.4099L79.585 82.4099L36 126L38.83 128.83L82.415 85.2449L90.17 92.9999L57.17 126L58.94 127.77L91.94 94.7699L99.695 102.525L76.21 126L77.98 127.77L101.46 104.29L109.215 112.045L95.255 126L97.025 127.77L110.98 113.815L118.31 121.145C111.935 126.993 105.776 133.072 99.845 139.37C91.0375 148.729 82.7437 158.558 75 168.815L53.915 196.745C53.58 197.19 53.695 197.695 54.005 198.005C54.315 198.315 54.82 198.43 55.265 198.095L83.195 177.01C93.4526 169.267 103.282 160.974 112.64 152.165C116.515 148.52 120.305 144.78 124.01 140.96V169.82L122.235 175.135C120.427 180.555 119.507 186.231 119.51 191.945V201.01C119.51 207.865 127.055 215.365 128.97 215.915C129.175 215.975 129.385 216.005 129.585 216.005C130.295 216.005 130.96 215.655 131.345 215.04C132.11 213.82 133.265 211.225 133.66 209.58C135.94 200.15 134.695 186.465 130.63 176.31L128.01 169.76V136.77C128.97 135.75 129.92 134.725 130.865 133.695L138.195 141.025L130.51 148.71V152.245L139.96 142.795L147.715 150.55L130.51 167.755V169.28L131.085 170.715L149.485 152.315L157.24 160.07L135.14 182.165C135.385 183.11 135.605 184.07 135.805 185.035L159.005 161.835L166.76 169.59L137.27 199.075C137.27 201.13 137.165 203.135 136.95 205.05L169.585 172.415L196.585 199.415L199.415 196.585L172.415 169.585L216 126.005L213.17 123.175L169.585 166.76L161.83 159.005L194.83 126.005L193.06 124.235L160.06 157.235L152.305 149.48L175.785 126L174.015 124.23L150.535 147.71L142.78 139.955L156.735 126L154.965 124.23L141.01 138.185L133.545 130.72C135.455 128.595 137.34 126.445 139.2 124.275L198.05 55.3099C198.435 54.8599 198.32 54.3249 198 53.9999C197.675 53.6799 197.145 53.5649 196.69 53.9499ZM140.19 113.77C140.315 114.645 140.43 116.195 140.065 117.985C139.695 119.78 138.82 121.84 137.02 123.68L124.585 136.395C122.2 138.78 118.43 138.875 115.78 136.23C113.13 133.585 113.23 129.81 115.615 127.425L128.33 114.99C130.17 113.19 132.23 112.315 134.025 111.945C135.82 111.575 137.37 111.69 138.24 111.82C138.745 111.895 139.195 112.135 139.535 112.48C139.875 112.815 140.115 113.265 140.19 113.77Z" fill="white"/>
</svg>
