<svg width="252" height="252" viewBox="0 0 252 252" fill="none" xmlns="http://www.w3.org/2000/svg">
<path d="M62.225 106.27C62.675 106.27 63.125 106.245 63.57 106.21L37.77 132.01L36 130.245L60.11 106.135C60.805 106.22 61.51 106.27 62.225 106.27ZM54.73 104.5C53.965 104.115 53.23 103.67 52.525 103.17L36 119.695L37.77 121.465L54.73 104.5ZM140.795 36L36 140.795L38.83 143.625L143.62 38.83L140.795 36ZM129.86 87.535L136.93 80.465L135.16 78.695L128.09 85.765L129.86 87.535ZM105.165 112.235L112.235 105.165L110.465 103.395L103.395 110.465L105.165 112.235ZM214.23 130.54L197.27 147.5C198.035 147.885 198.77 148.33 199.475 148.83L216 132.305L214.23 130.54ZM92.815 124.585L99.885 117.515L98.115 115.745L91.045 122.815L92.815 124.585ZM188.435 145.785C188.88 145.75 189.33 145.725 189.78 145.725C190.49 145.725 191.195 145.775 191.89 145.86L216 121.755L214.23 119.985L188.435 145.785ZM204.97 185.595C205.095 186 204.99 186.44 204.695 186.745L198.68 192.87C198.19 193.37 197.385 193.375 196.885 192.885C196.695 192.699 196.569 192.458 196.524 192.195C196.479 191.933 196.518 191.664 196.635 191.425L197.84 188.96L189.63 184.365L176.795 197.2L169.5 193.675C169.52 193.425 169.54 193.175 169.54 192.915C169.54 187.27 164.96 182.69 159.315 182.69C153.67 182.69 149.09 187.27 149.09 192.915C149.09 198.56 153.67 203.14 159.315 203.14C162.92 203.14 166.08 201.27 167.895 198.45L158.77 194.04L159.86 191.79L179.155 201.115C179.87 201.47 180.365 202.14 180.49 202.915C180.615 203.69 180.36 204.48 179.805 205.035L176.4 208.44C176.107 208.735 175.743 208.95 175.342 209.063C174.942 209.177 174.52 209.186 174.115 209.09C173.709 208.997 173.335 208.801 173.027 208.521C172.72 208.24 172.49 207.885 172.36 207.49L171.31 204.365L173.68 203.57L174.7 206.605L177.985 203.325L171.52 200.2C169.035 204.35 164.505 207.135 159.315 207.135C151.46 207.135 145.09 200.765 145.09 192.91C145.09 185.055 151.46 178.685 159.315 178.685C166.415 178.685 172.3 183.885 173.365 190.685L176.285 176.89L170.95 173.905L172.17 171.725L184.91 178.85L188.56 162.175L191 162.71L187.19 180.125L198.955 186.705C199.371 185.947 200.016 185.339 200.799 184.969C201.581 184.599 202.46 184.486 203.31 184.645L204.095 184.795C204.505 184.89 204.845 185.19 204.97 185.595ZM187.36 183.1L178.565 178.18L174.885 195.575L187.36 183.1ZM191.41 172.535L190.505 176.66C198.02 176.28 204 170.065 204 162.455C204 154.6 197.63 148.23 189.775 148.23C181.92 148.23 175.55 154.6 175.55 162.455C175.55 167.93 178.645 172.68 183.18 175.055L184.08 170.945C181.35 169.11 179.55 165.99 179.55 162.455C179.55 156.81 184.13 152.23 189.775 152.23C195.42 152.23 200 156.81 200 162.455C200 167.545 196.28 171.755 191.41 172.535ZM142.21 75.19L149.28 68.12L147.51 66.35L140.44 73.42L142.21 75.19ZM161.63 55.77L159.86 54L152.79 61.07L154.56 62.84L161.63 55.77ZM117.515 99.885L124.585 92.815L122.815 91.045L115.745 98.115L117.515 99.885ZM141.53 148.605L148.6 141.535L146.83 139.765L139.76 146.835L141.53 148.605ZM90.37 196.23L92.14 198L99.21 190.93L97.44 189.16L90.37 196.23ZM129.18 160.955L136.25 153.885L134.48 152.115L127.41 159.185L129.18 160.955ZM116.835 173.3L123.905 166.23L122.135 164.46L115.065 171.53L116.835 173.3ZM109.79 176.81L102.72 183.88L104.49 185.65L111.56 178.58L109.79 176.81ZM213.17 108.38L108.38 213.17L111.21 216L216 111.205L213.17 108.38ZM80.465 136.93L87.535 129.86L85.765 128.09L78.695 135.16L80.465 136.93ZM196.585 52.585L52.585 196.585L55.415 199.415L199.415 55.415L196.585 52.585ZM55.77 161.63L62.84 154.56L61.07 152.79L54 159.86L55.77 161.63ZM153.88 136.255L160.95 129.185L159.18 127.415L152.11 134.485L153.88 136.255ZM68.12 149.28L75.19 142.21L73.42 140.44L66.35 147.51L68.12 149.28ZM166.23 123.905L173.3 116.835L171.53 115.065L164.46 122.135L166.23 123.905ZM190.925 99.21L197.995 92.14L196.225 90.37L189.155 97.44L190.925 99.21ZM178.575 111.555L185.645 104.485L183.875 102.715L176.805 109.785L178.575 111.555ZM76.45 89.545C76.45 84.07 73.355 79.32 68.82 76.945L67.92 81.055C70.65 82.89 72.45 86.01 72.45 89.545C72.45 95.19 67.87 99.77 62.225 99.77C56.58 99.77 52 95.19 52 89.545C52 84.455 55.725 80.245 60.595 79.46L61.5 75.335C53.975 75.72 48 81.935 48 89.545C48 97.4 54.37 103.77 62.225 103.77C70.08 103.77 76.45 97.4 76.45 89.545ZM47.03 66.405C46.9685 66.2063 46.9616 65.9947 47.01 65.7923C47.0584 65.59 47.1603 65.4044 47.305 65.255L53.32 59.13C53.81 58.63 54.615 58.625 55.115 59.115C55.505 59.5 55.605 60.085 55.365 60.575L54.16 63.04L62.37 67.635L75.205 54.8L82.5 58.325C82.48 58.575 82.46 58.825 82.46 59.085C82.46 64.73 87.04 69.31 92.685 69.31C98.33 69.31 102.91 64.73 102.91 59.085C102.91 53.44 98.33 48.86 92.685 48.86C89.08 48.86 85.92 50.73 84.105 53.55L93.23 57.96L92.14 60.21L72.845 50.885C72.4952 50.713 72.1916 50.4599 71.9594 50.1468C71.7272 49.8337 71.5731 49.4697 71.51 49.085C71.385 48.31 71.64 47.52 72.195 46.965L75.6 43.56C76.2 42.96 77.055 42.715 77.885 42.91C78.715 43.105 79.37 43.7 79.64 44.51L80.69 47.635L78.32 48.43L77.3 45.395L74.015 48.675L80.48 51.8C82.965 47.65 87.495 44.865 92.685 44.865C100.54 44.865 106.91 51.235 106.91 59.09C106.91 66.945 100.54 73.315 92.685 73.315C85.585 73.315 79.7 68.115 78.635 61.315L75.715 75.11L81.05 78.095L79.83 80.275L67.09 73.15L63.44 89.825L61 89.29L64.81 71.875L53.045 65.295C52.6288 66.0535 51.9836 66.6611 51.2015 67.0311C50.4194 67.401 49.5404 67.5144 48.69 67.355L47.905 67.205C47.495 67.11 47.155 66.81 47.03 66.405ZM64.64 68.9L73.435 73.82L77.115 56.425L64.64 68.9Z" fill="black"/>
</svg>
