<svg width="252" height="252" viewBox="0 0 252 252" fill="none" xmlns="http://www.w3.org/2000/svg">
<path d="M171.42 169.655C194.855 145.29 194.855 106.715 171.42 82.35L180.495 73.275C189.74 82.085 202.25 87.5 216 87.5V83.5C203.355 83.5 191.845 78.53 183.325 70.445L197.77 56H203.335L216 43.23H208.77V36L196 48.665V54.23L181.555 68.675C173.47 60.155 168.5 48.645 168.5 36H164.5C164.5 49.75 169.915 62.26 178.73 71.505L169.655 80.58C145.29 57.145 106.715 57.145 82.35 80.58L73.275 71.505C82.085 62.26 87.5 49.75 87.5 36H83.5C83.5 48.645 78.53 60.155 70.445 68.675L56 54.23V48.665L43.23 36V43.23H36L48.665 56H54.23L68.675 70.445C60.155 78.53 48.645 83.5 36 83.5V87.5C49.75 87.5 62.26 82.085 71.505 73.27L80.58 82.345C57.145 106.71 57.145 145.285 80.58 169.65L71.505 178.725C62.26 169.915 49.75 164.5 36 164.5V168.5C48.645 168.5 60.155 173.47 68.675 181.555L54.23 196H48.665L36 208.77H43.23V216L56 203.335V197.77L70.445 183.325C78.53 191.845 83.5 203.355 83.5 216H87.5C87.5 202.25 82.085 189.74 73.27 180.495L82.345 171.42C106.71 194.855 145.285 194.855 169.65 171.42L178.725 180.495C169.915 189.74 164.5 202.25 164.5 216H168.5C168.5 203.355 173.47 191.845 181.555 183.325L196 197.77V203.335L208.77 216V208.77H216L203.335 196H197.77L183.325 181.555C191.845 173.47 203.355 168.5 216 168.5V164.5C202.25 164.5 189.74 169.915 180.495 178.73L171.42 169.655ZM166.825 83.41L163.29 86.945C142.44 67.02 109.56 67.02 88.71 86.945L85.175 83.41C107.98 61.535 144.02 61.535 166.825 83.41ZM130.625 130.565L136.375 134.625C135.845 135.26 135.26 135.845 134.625 136.375L130.565 130.625C128.035 133.12 123.965 133.12 121.435 130.625L117.375 136.375C116.74 135.845 116.155 135.26 115.625 134.625L121.375 130.565C118.88 128.035 118.88 123.965 121.375 121.435L115.625 117.37C116.155 116.735 116.74 116.15 117.375 115.62L121.44 121.37C123.97 118.87 128.04 118.87 130.57 121.37L134.63 115.62C135.265 116.15 135.85 116.735 136.38 117.37L130.63 121.43C133.125 123.965 133.125 128.035 130.625 130.565ZM134.62 115.61C129.635 111.465 122.365 111.465 117.38 115.61L112.77 111C120.315 104.335 131.68 104.335 139.225 111L134.62 115.61ZM115.61 117.38C111.465 122.365 111.465 129.635 115.61 134.62L111 139.23C104.335 131.685 104.335 120.32 111 112.775L115.61 117.38ZM117.38 136.385C122.365 140.53 129.635 140.53 134.62 136.385L139.23 140.995C131.685 147.66 120.32 147.66 112.775 140.995L117.38 136.385ZM136.385 134.62C140.53 129.635 140.53 122.365 136.385 117.38L140.995 112.77C147.66 120.315 147.66 131.68 140.995 139.225L136.385 134.62ZM107.815 106.045L103.22 101.45C116.055 89.525 135.95 89.525 148.785 101.45L144.19 106.045C133.895 96.655 118.105 96.655 107.815 106.045ZM106.045 107.815C96.655 118.105 96.655 133.895 106.045 144.185L101.45 148.78C89.525 135.945 89.525 116.05 101.45 103.215L106.045 107.815ZM107.815 145.955C118.105 155.345 133.895 155.345 144.185 145.955L148.78 150.55C135.945 162.475 116.05 162.475 103.215 150.55L107.815 145.955ZM145.955 144.185C155.345 133.895 155.345 118.105 145.955 107.815L150.55 103.22C162.475 116.055 162.475 135.95 150.55 148.785L145.955 144.185ZM98.27 96.5L93.675 91.905C111.785 74.715 140.22 74.715 158.33 91.905L153.735 96.5C138.16 81.85 113.84 81.85 98.27 96.5ZM96.5 98.27C81.845 113.84 81.845 138.16 96.5 153.735L91.905 158.33C74.715 140.22 74.715 111.785 91.905 93.675L96.5 98.27ZM98.27 155.5C113.84 170.155 138.16 170.155 153.735 155.5L158.33 160.095C140.215 177.285 111.785 177.285 93.675 160.095L98.27 155.5ZM155.5 153.73C170.155 138.16 170.155 113.84 155.5 98.265L160.095 93.67C177.285 111.78 177.285 140.215 160.095 158.325L155.5 153.73ZM83.41 85.175L86.945 88.71C67.02 109.56 67.02 142.44 86.945 163.285L83.41 166.82C61.535 144.02 61.535 107.98 83.41 85.175ZM85.175 168.59L88.71 165.055C109.56 184.98 142.44 184.98 163.29 165.055L166.825 168.59C144.02 190.465 107.98 190.465 85.175 168.59ZM168.59 166.825L165.055 163.29C184.98 142.44 184.98 109.56 165.055 88.71L168.59 85.175C190.465 107.98 190.465 144.02 168.59 166.825Z" fill="#FFF0DA"/>
</svg>
