<svg width="252" height="252" viewBox="0 0 252 252" fill="none" xmlns="http://www.w3.org/2000/svg">
<path d="M141.54 85.4L142.45 86.89C142.45 86.895 142.775 87.445 143.155 88.42L142.88 88.365C139.66 87.715 136.805 85.895 134.835 83.245L134.16 82.335C132.125 79.595 129.075 77.955 126 77.955C122.925 77.955 119.875 79.595 117.84 82.335L117.165 83.245C115.195 85.895 112.34 87.715 109.12 88.365L108.845 88.42C109.225 87.445 109.55 86.89 109.555 86.88L110.46 85.4C112.325 84.66 113.965 83.415 115.185 81.77L115.86 80.86C118.355 77.495 122.145 75.485 126 75.48C129.855 75.485 133.645 77.495 136.14 80.86L136.815 81.77C138.035 83.41 139.675 84.66 141.54 85.4ZM80.85 136.145L81.76 136.82C83.4 138.035 84.645 139.67 85.385 141.535L86.875 142.445C86.885 142.45 87.435 142.775 88.405 143.155L88.35 142.89C87.7 139.67 85.88 136.815 83.23 134.845L82.32 134.17C79.58 132.135 77.94 129.085 77.94 126.01C77.94 122.935 79.58 119.885 82.32 117.85L83.23 117.175C85.88 115.205 87.7 112.35 88.35 109.13L88.405 108.85C87.435 109.23 86.885 109.55 86.885 109.55L85.39 110.465C84.6455 112.35 83.388 113.988 81.76 115.195L80.85 115.87C77.485 118.365 75.475 122.155 75.47 126.01C75.475 129.86 77.485 133.65 80.85 136.145ZM115.185 170.245L115.86 171.155C118.355 174.52 122.145 176.53 126 176.535C129.85 176.53 133.64 174.52 136.14 171.155L136.815 170.245C138.035 168.605 139.67 167.355 141.535 166.62L142.45 165.125C142.455 165.115 142.78 164.565 143.155 163.6L142.885 163.655C139.665 164.305 136.81 166.125 134.84 168.775L134.165 169.685C132.13 172.425 129.08 174.065 126.005 174.065C122.93 174.065 119.88 172.425 117.845 169.685L117.17 168.775C115.215 166.131 112.348 164.306 109.125 163.655L108.855 163.6C109.23 164.565 109.55 165.11 109.555 165.115L110.475 166.62C112.35 167.369 113.981 168.624 115.185 170.245ZM171.15 115.865L170.24 115.19C168.611 113.985 167.353 112.346 166.61 110.46L165.13 109.555C165.12 109.55 164.565 109.225 163.595 108.845L163.65 109.125C164.3 112.345 166.12 115.2 168.775 117.17L169.685 117.845C172.425 119.88 174.065 122.93 174.065 126.005C174.06 129.08 172.425 132.13 169.685 134.165L168.775 134.84C166.131 136.796 164.305 139.662 163.65 142.885L163.595 143.15C164.56 142.77 165.11 142.45 165.115 142.45L166.615 141.535C167.355 139.675 168.6 138.04 170.24 136.82L171.15 136.145C174.515 133.65 176.525 129.86 176.53 126.005C176.525 122.155 174.51 118.365 171.15 115.865ZM115.49 150.515C116.94 150.81 118.23 151.63 119.12 152.83L119.525 153.375C121.115 155.515 123.535 156.795 126.005 156.8C128.47 156.8 130.89 155.52 132.48 153.375L132.885 152.83C133.775 151.63 135.065 150.81 136.515 150.515L142.17 149.37C142.28 149.35 142.385 149.32 142.495 149.29C142.21 148.584 141.896 147.891 141.555 147.21L141.45 146.995L136.03 148.09C133.98 148.505 132.16 149.66 130.91 151.35L130.505 151.895C129.375 153.415 127.695 154.32 126.01 154.325C124.32 154.325 122.64 153.415 121.51 151.895L121.105 151.35C119.86 149.666 118.033 148.504 115.98 148.09L110.565 146.995L110.455 147.21C110.1 147.91 109.785 148.6 109.505 149.285C109.615 149.31 109.725 149.34 109.835 149.365L115.49 150.515ZM150.505 136.52C150.8 135.07 151.62 133.78 152.82 132.89L153.365 132.485C155.505 130.895 156.785 128.475 156.79 126.005C156.79 123.54 155.505 121.12 153.365 119.53L152.82 119.125C151.62 118.235 150.8 116.945 150.505 115.495L149.36 109.84C149.34 109.73 149.305 109.62 149.28 109.51C148.585 109.795 147.89 110.1 147.215 110.445L146.99 110.56L148.085 115.98C148.5 118.03 149.655 119.85 151.345 121.105L151.89 121.51C153.41 122.635 154.315 124.32 154.32 126.005C154.32 127.695 153.41 129.375 151.89 130.505L151.345 130.91C149.663 132.155 148.502 133.979 148.085 136.03L146.995 141.435L147.215 141.55C147.91 141.905 148.6 142.215 149.285 142.495C149.31 142.39 149.34 142.285 149.36 142.175L150.505 136.52ZM105.005 141.44L103.915 136.035C103.5 133.985 102.34 132.165 100.655 130.915L100.11 130.51C98.59 129.385 97.685 127.7 97.68 126.015C97.68 124.325 98.59 122.645 100.11 121.52L100.655 121.115C102.345 119.86 103.5 118.045 103.915 115.99L105.01 110.57L104.785 110.455C104.09 110.1 103.4 109.79 102.72 109.51C102.695 109.62 102.66 109.735 102.64 109.845L101.495 115.5C101.2 116.95 100.38 118.24 99.18 119.13L98.635 119.535C96.495 121.125 95.215 123.545 95.21 126.01C95.21 128.475 96.49 130.895 98.635 132.485L99.18 132.89C100.38 133.78 101.2 135.07 101.495 136.52L102.64 142.175C102.66 142.28 102.69 142.385 102.715 142.485C103.415 142.2 104.11 141.895 104.785 141.545L105.005 141.44ZM136.51 101.505C135.06 101.21 133.77 100.39 132.88 99.19L132.475 98.645C130.885 96.505 128.465 95.225 126 95.22C123.535 95.22 121.115 96.5 119.525 98.645L119.12 99.19C118.23 100.39 116.94 101.21 115.49 101.505L109.835 102.65C109.73 102.67 109.625 102.7 109.52 102.725C109.805 103.42 110.11 104.11 110.455 104.785L110.57 105.015L115.98 103.92C118.03 103.505 119.85 102.35 121.105 100.66L121.51 100.115C122.635 98.595 124.32 97.69 126.005 97.685C127.695 97.685 129.375 98.595 130.505 100.115L130.91 100.66C132.154 102.343 133.979 103.505 136.03 103.92L141.44 105.015L141.56 104.785C141.915 104.095 142.225 103.405 142.5 102.725C142.39 102.7 142.285 102.67 142.175 102.645L136.51 101.505ZM206.715 108.535L205.075 107.32C200.985 104.285 198.18 99.88 197.18 94.92L194.65 82.405C194.275 82.865 193.875 83.315 193.445 83.74C193.16 84.025 192.87 84.3 192.57 84.565L194.76 95.405C195.885 100.965 199.025 105.895 203.605 109.295L205.245 110.51C210.43 114.36 213.53 120.15 213.535 125.995C213.53 131.845 210.43 137.635 205.245 141.485L203.605 142.7C199.025 146.1 195.885 151.03 194.76 156.59L192.57 167.43C192.87 167.695 193.16 167.97 193.445 168.255C193.87 168.68 194.275 169.125 194.65 169.585L197.18 157.075C198.18 152.115 200.985 147.71 205.075 144.675L206.715 143.46C212.525 139.15 215.995 132.62 216 125.99C215.995 119.375 212.52 112.845 206.715 108.535ZM83.745 58.555C84.03 58.84 84.305 59.13 84.57 59.43L95.41 57.24C100.97 56.115 105.9 52.975 109.3 48.395L110.515 46.755C114.365 41.57 120.155 38.47 126 38.465C131.85 38.47 137.64 41.57 141.49 46.755L142.705 48.395C146.105 52.975 151.035 56.115 156.595 57.24L167.44 59.43C167.705 59.13 167.98 58.84 168.265 58.555C168.69 58.13 169.135 57.725 169.595 57.35L157.085 54.82C152.125 53.82 147.72 51.015 144.685 46.925L143.47 45.285C139.155 39.475 132.625 36.005 126 36C119.375 36.005 112.845 39.475 108.535 45.285L107.32 46.925C104.285 51.015 99.88 53.82 94.92 54.82L82.405 57.35C82.865 57.725 83.315 58.125 83.745 58.555ZM57.35 169.595C57.73 169.135 58.125 168.685 58.555 168.255C58.84 167.97 59.13 167.695 59.43 167.43L57.24 156.59C56.115 151.03 52.975 146.1 48.395 142.7L46.755 141.485C41.57 137.635 38.47 131.845 38.465 126C38.47 120.15 41.57 114.36 46.755 110.51L48.395 109.295C52.975 105.895 56.115 100.965 57.24 95.405L59.43 84.56C59.13 84.295 58.84 84.02 58.555 83.735C58.13 83.31 57.725 82.865 57.35 82.4L54.82 94.91C53.82 99.87 51.015 104.275 46.925 107.31L45.285 108.525C39.48 112.845 36.005 119.375 36 126C36.005 132.625 39.48 139.155 45.285 143.465L46.925 144.68C51.015 147.715 53.82 152.12 54.82 157.08L57.35 169.595ZM168.26 193.445C167.975 193.16 167.7 192.87 167.435 192.57L156.595 194.76C151.035 195.885 146.105 199.025 142.705 203.605L141.49 205.245C137.64 210.43 131.85 213.53 126.005 213.535C120.155 213.53 114.365 210.43 110.515 205.245L109.3 203.605C105.9 199.025 100.97 195.885 95.41 194.76L84.565 192.57C84.3 192.87 84.025 193.16 83.74 193.445C83.315 193.87 82.87 194.275 82.405 194.65L94.915 197.18C99.875 198.18 104.28 200.985 107.315 205.075L108.53 206.715C112.84 212.525 119.37 215.995 126 216C132.625 215.995 139.155 212.525 143.465 206.715L144.68 205.075C147.715 200.985 152.12 198.18 157.08 197.18L169.595 194.65C169.135 194.27 168.685 193.875 168.26 193.445ZM196.265 126C196.26 120.76 193.52 115.6 188.93 112.2L187.655 111.255C184.53 108.935 182.385 105.57 181.62 101.78L179.58 91.68C179.014 92.1227 178.475 92.5985 177.965 93.105C177.79 93.28 177.63 93.465 177.465 93.645L179.205 102.265C180.095 106.655 182.575 110.55 186.19 113.235L187.465 114.18C191.43 117.12 193.795 121.54 193.8 126.005C193.795 130.465 191.43 134.885 187.465 137.83L186.19 138.775C182.575 141.46 180.095 145.355 179.205 149.745L177.465 158.36C177.63 158.54 177.79 158.725 177.965 158.9C178.475 159.41 179.015 159.885 179.58 160.33L181.62 150.24C182.385 146.45 184.53 143.085 187.655 140.765L188.93 139.82C193.52 136.4 196.26 131.24 196.265 126ZM140.75 64.345L139.805 63.07C136.4 58.485 131.24 55.745 126 55.74C120.76 55.745 115.6 58.485 112.2 63.07L111.255 64.345C108.935 67.47 105.57 69.615 101.78 70.38L91.685 72.42C92.125 72.985 92.6 73.525 93.11 74.035C93.285 74.21 93.47 74.37 93.65 74.54L102.265 72.8C106.655 71.915 110.55 69.435 113.23 65.815L114.175 64.54C117.115 60.575 121.54 58.21 126 58.205C130.46 58.21 134.88 60.575 137.825 64.54L138.77 65.815C141.455 69.43 145.35 71.91 149.735 72.8L158.35 74.54C158.53 74.37 158.715 74.21 158.89 74.035C159.4 73.525 159.875 72.985 160.315 72.42L150.22 70.38C146.435 69.615 143.07 67.47 140.75 64.345ZM63.07 139.805L64.345 140.75C67.47 143.07 69.615 146.435 70.38 150.225L72.42 160.32C72.985 159.88 73.53 159.4 74.04 158.89C74.215 158.715 74.375 158.53 74.54 158.355L72.8 149.74C71.91 145.35 69.43 141.455 65.815 138.775L64.54 137.83C60.575 134.89 58.21 130.47 58.205 126.01C58.21 121.55 60.575 117.125 64.54 114.185L65.815 113.24C69.43 110.555 71.91 106.66 72.8 102.27L74.54 93.65C74.375 93.47 74.215 93.285 74.04 93.11C73.53 92.6 72.99 92.125 72.425 91.68L70.385 101.78C69.62 105.57 67.475 108.935 64.35 111.255L63.075 112.2C58.49 115.605 55.745 120.765 55.745 126.005C55.74 131.24 58.48 136.4 63.07 139.805ZM111.25 187.66L112.195 188.935C115.6 193.52 120.76 196.26 126 196.265C131.24 196.26 136.4 193.52 139.8 188.935L140.745 187.66C143.065 184.535 146.43 182.39 150.22 181.625L160.32 179.585C159.88 179.015 159.4 178.475 158.89 177.965C158.715 177.79 158.535 177.635 158.355 177.465L149.735 179.21C145.345 180.095 141.45 182.575 138.77 186.195L137.825 187.47C134.885 191.435 130.46 193.8 126 193.805C121.54 193.8 117.12 191.435 114.175 187.47L113.23 186.195C110.545 182.58 106.65 180.1 102.265 179.21L93.645 177.47C93.465 177.635 93.285 177.795 93.11 177.97C92.6 178.48 92.12 179.02 91.68 179.59L101.78 181.63C105.565 182.39 108.93 184.535 111.25 187.66ZM167.43 83.56C168.53 83.78 169.62 84.02 170.7 84.255C177.155 85.665 183.25 86.995 188.855 84.095C189.845 83.585 190.805 82.865 191.71 81.995C195.63 78.07 196.985 72.555 195.77 67.53L193.23 67.835C194.185 71.42 193.56 75.34 191.36 78.49L191.355 78.485C190.9 77.04 189.745 76.135 188.265 75.515C186.785 74.895 184.98 74.555 183.22 74.235C181.82 73.98 180.575 73.325 179.605 72.39C178.665 71.42 178.015 70.175 177.76 68.775C177.44 67.015 177.1 65.21 176.48 63.73C175.86 62.25 174.955 61.1 173.515 60.64C175.71 59.105 178.28 58.34 180.855 58.34C181.97 58.34 183.08 58.485 184.165 58.77L184.47 56.23C183.285 55.945 182.065 55.8 180.855 55.8C176.93 55.8 173 57.3 170.005 60.295C167.999 62.294 166.498 64.7413 165.625 67.435C164.681 70.5855 162.968 73.4516 160.64 75.775C159.101 77.3173 157.346 78.6277 155.43 79.665L146.265 84.67C154.375 80.935 161.285 82.325 167.43 83.56ZM170.17 86.69C169.1 86.455 168.025 86.22 166.94 86.005C160.47 84.7 153.78 83.355 145.69 87.745L145.57 87.81C145.905 88.715 146.255 89.87 146.5 91.235C147.17 94.945 146.54 100.44 143.745 105.905C143.745 105.905 144.33 106.31 145.01 106.99C145.69 107.67 146.095 108.255 146.095 108.255C150.255 106.13 154.435 105.255 157.83 105.255C158.895 105.255 159.885 105.34 160.77 105.5C164.25 106.13 166.4 107.44 166.4 107.44L172.335 96.57C173.345 94.7 174.64 92.94 176.225 91.36C177.404 90.1783 178.728 89.1502 180.165 88.3C176.905 88.16 173.58 87.435 170.17 86.69ZM83.56 84.57C83.78 83.47 84.02 82.38 84.255 81.3C85.665 74.845 86.995 68.75 84.095 63.145C83.585 62.155 82.865 61.195 81.995 60.29C78.07 56.37 72.555 55.015 67.53 56.23L67.835 58.77C71.42 57.815 75.34 58.44 78.49 60.64L78.485 60.645C77.04 61.1 76.135 62.255 75.515 63.735C74.895 65.215 74.555 67.02 74.235 68.78C73.98 70.18 73.325 71.425 72.39 72.395C71.42 73.335 70.175 73.985 68.775 74.24C67.015 74.56 65.21 74.9 63.73 75.52C62.25 76.14 61.1 77.045 60.64 78.485C59.105 76.29 58.34 73.72 58.34 71.145C58.34 70.03 58.485 68.92 58.77 67.835L56.23 67.53C55.945 68.715 55.8 69.935 55.8 71.145C55.8 75.07 57.3 79 60.295 81.995C62.37 84.07 64.825 85.53 67.435 86.375C70.485 87.29 73.365 88.95 75.775 91.36C77.3173 92.8989 78.6277 94.654 79.665 96.57L84.67 105.735C80.935 97.625 82.325 90.715 83.56 84.57ZM86.69 81.83C86.455 82.9 86.22 83.975 86.005 85.06C84.7 91.53 83.355 98.22 87.745 106.31L87.81 106.43C88.715 106.095 89.87 105.745 91.235 105.5C94.945 104.83 100.44 105.46 105.905 108.255C105.905 108.255 106.31 107.67 106.99 106.99C107.67 106.31 108.255 105.905 108.255 105.905C106.13 101.745 105.255 97.565 105.255 94.17C105.255 93.105 105.34 92.115 105.5 91.23C106.13 87.75 107.44 85.6 107.44 85.6L96.57 79.665C94.6529 78.6294 92.8976 77.3189 91.36 75.775C90.1783 74.5956 89.1502 73.2719 88.3 71.835C88.16 75.1 87.44 78.42 86.69 81.83ZM84.57 168.44C83.47 168.22 82.38 167.98 81.3 167.745C74.845 166.335 68.75 165.005 63.145 167.905C62.155 168.415 61.195 169.135 60.29 170.005C56.37 173.93 55.015 179.445 56.23 184.47L58.77 184.165C57.815 180.58 58.44 176.66 60.64 173.51L60.645 173.515C61.1 174.96 62.255 175.865 63.735 176.485C65.215 177.105 67.02 177.445 68.78 177.765C70.18 178.02 71.425 178.675 72.395 179.61C73.335 180.58 73.985 181.825 74.24 183.225C74.56 184.985 74.9 186.79 75.52 188.27C76.14 189.75 77.045 190.9 78.485 191.36C76.29 192.895 73.72 193.66 71.145 193.66C70.03 193.66 68.92 193.515 67.835 193.23L67.53 195.77C68.715 196.055 69.935 196.2 71.145 196.2C75.07 196.2 79 194.7 81.995 191.705C84.07 189.63 85.53 187.175 86.375 184.565C87.29 181.515 88.95 178.635 91.36 176.225C92.8989 174.683 94.654 173.372 96.57 172.335L105.735 167.33C97.625 171.065 90.715 169.675 84.57 168.44ZM81.835 165.31C82.905 165.545 83.98 165.78 85.065 165.995C91.535 167.3 98.225 168.645 106.315 164.255L106.435 164.19C106.1 163.285 105.75 162.13 105.505 160.765C104.835 157.055 105.465 151.56 108.26 146.095C108.26 146.095 107.675 145.69 106.995 145.01C106.315 144.33 105.91 143.745 105.91 143.745C101.75 145.87 97.57 146.745 94.175 146.745C93.11 146.745 92.12 146.66 91.235 146.5C87.755 145.87 85.605 144.56 85.605 144.56L79.67 155.43C78.6344 157.347 77.3239 159.102 75.78 160.64C74.6006 161.822 73.2768 162.85 71.84 163.7C75.1 163.84 78.42 164.565 81.835 165.31ZM168.44 167.43C168.22 168.53 167.98 169.62 167.745 170.7C166.335 177.155 165.005 183.25 167.905 188.855C168.415 189.845 169.135 190.805 170.005 191.71C173.93 195.63 179.445 196.985 184.47 195.77L184.165 193.23C180.58 194.185 176.66 193.56 173.51 191.36L173.515 191.355C174.96 190.9 175.865 189.745 176.485 188.265C177.105 186.785 177.445 184.98 177.765 183.22C178.02 181.82 178.675 180.575 179.61 179.605C180.58 178.665 181.825 178.015 183.225 177.76C184.985 177.44 186.79 177.1 188.27 176.48C189.75 175.86 190.9 174.955 191.36 173.515C192.895 175.71 193.66 178.28 193.66 180.855C193.66 181.97 193.515 183.08 193.23 184.165L195.77 184.47C196.055 183.285 196.2 182.065 196.2 180.855C196.2 176.93 194.7 173 191.705 170.005C189.706 167.999 187.259 166.498 184.565 165.625C181.415 164.681 178.548 162.968 176.225 160.64C174.683 159.101 173.372 157.346 172.335 155.43L167.33 146.265C171.065 154.375 169.68 161.285 168.44 167.43ZM165.31 170.165C165.545 169.095 165.78 168.02 165.995 166.935C167.3 160.465 168.645 153.775 164.255 145.685L164.19 145.565C163.285 145.9 162.13 146.25 160.765 146.495C157.055 147.165 151.56 146.535 146.095 143.74C146.095 143.74 145.69 144.325 145.01 145.005C144.33 145.685 143.745 146.09 143.745 146.09C145.87 150.25 146.745 154.43 146.745 157.825C146.745 158.89 146.66 159.88 146.5 160.765C145.87 164.245 144.56 166.395 144.56 166.395L155.43 172.33C157.3 173.34 159.06 174.635 160.64 176.22C161.822 177.399 162.85 178.723 163.7 180.16C163.84 176.9 164.565 173.58 165.31 170.165Z" fill="#FFF0DA"/>
</svg>
