<svg width="252" height="252" viewBox="0 0 252 252" fill="none" xmlns="http://www.w3.org/2000/svg">
<path d="M147.675 104.325C147.2 103.85 146.705 103.4 146.195 102.98L168.77 80.405L171.6 83.235L149.025 105.81C148.6 105.295 148.15 104.8 147.675 104.325ZM41.49 44.355C41.49 40.315 42.53 36 45.455 36H206.545C209.47 36 210.51 40.315 210.51 44.355C210.51 48.395 209.47 52.71 206.545 52.71H202.12L189.185 65.645L205.735 82.195L202.905 85.025L170.59 52.71H81.405L49.09 85.025L46.26 82.195L62.81 65.645L49.875 52.71H45.45C42.53 52.705 41.49 48.39 41.49 44.355ZM75.75 52.705H55.535L65.64 62.81L75.75 52.705ZM196.465 52.705H176.25L186.36 62.81L196.465 52.705ZM43.99 44.355C43.99 48.155 45.03 50.21 45.455 50.21H206.545C206.97 50.21 208.01 48.16 208.01 44.355C208.01 40.55 206.97 38.5 206.545 38.5H45.455C45.03 38.5 43.99 40.55 43.99 44.355ZM216 88.41V72.75H199.83L203.83 76.75H212V88.41H212.75V163.595H212V175.255H203.83L199.83 179.255H216V163.595H215.25V88.41H216ZM77.73 59.915H174.265L192.08 77.73V174.265L174.265 192.08H77.73L59.915 174.265V77.73L77.73 59.915ZM74.75 74.75V177.25H177.25V74.75H74.75ZM48.17 175.25H40V163.59H39.25V88.41H40V76.75H48.17L52.17 72.75H36V88.41H36.75V163.595H36V179.255H52.17L48.17 175.25ZM105.805 149.025C105.295 148.6 104.8 148.155 104.325 147.68C103.85 147.205 103.4 146.705 102.98 146.195L80.405 168.77L83.235 171.6L105.805 149.025ZM210.51 207.645C210.51 211.685 209.47 216 206.545 216H45.455C42.53 216 41.49 211.685 41.49 207.645C41.49 203.605 42.53 199.29 45.455 199.29H49.88L62.815 186.355L46.265 169.805L49.095 166.975L81.41 199.29H170.595L202.91 166.975L205.74 169.805L189.19 186.355L202.125 199.29H206.55C209.47 199.295 210.51 203.61 210.51 207.645ZM176.25 199.295H196.465L186.36 189.19L176.25 199.295ZM55.535 199.295H75.75L65.64 189.19L55.535 199.295ZM208.01 207.645C208.01 203.845 206.97 201.79 206.545 201.79H45.455C45.03 201.79 43.99 203.84 43.99 207.645C43.99 211.45 45.03 213.5 45.455 213.5H206.545C206.97 213.5 208.01 211.45 208.01 207.645ZM119.35 151.405C127 151.405 133.575 146.82 136.495 140.255C135.245 140.485 133.96 140.61 132.64 140.61C132.355 140.61 132.07 140.6 131.785 140.59C129.165 144.69 124.57 147.415 119.34 147.415C111.185 147.415 104.58 140.805 104.58 132.655C104.58 127.425 107.3 122.835 111.405 120.21C111.395 119.925 111.385 119.645 111.385 119.355C111.385 118.04 111.51 116.755 111.74 115.505C105.175 118.425 100.595 125 100.595 132.65C100.595 143.005 108.995 151.405 119.35 151.405ZM134.065 131.53C135.45 131.37 136.765 130.98 137.97 130.395C136.945 121.835 130.155 115.05 121.595 114.03C121.002 115.259 120.618 116.579 120.46 117.935C127.725 118.475 133.52 124.27 134.065 131.53ZM113.885 119.35C113.885 108.99 122.285 100.595 132.64 100.595C142.995 100.595 151.395 108.995 151.395 119.35C151.395 129.71 142.995 138.105 132.64 138.105C122.285 138.105 113.885 129.71 113.885 119.35ZM117.875 119.355C117.875 127.51 124.485 134.115 132.635 134.115C140.79 134.115 147.395 127.505 147.395 119.355C147.395 111.205 140.785 104.595 132.635 104.595C124.485 104.59 117.875 111.2 117.875 119.355Z" fill="#FFF0DA"/>
</svg>
