<svg width="252" height="252" viewBox="0 0 252 252" fill="none" xmlns="http://www.w3.org/2000/svg">
<path d="M70.265 85.675L119.94 36L121.71 37.77L69.255 90.225C69.75 88.785 70.095 87.265 70.265 85.675ZM81.035 55.82L99.085 37.77L97.315 36L79.365 53.95C80.095 54.525 80.65 55.145 81.035 55.82ZM63.23 84.38C64.11 72.02 66 67.9 70.18 62.83C72.61 59.88 74.185 56.45 74.83 53.975C74.715 53.92 74.595 53.865 74.47 53.81C70.03 51.855 66.145 50.555 63.18 49.965C60.005 49.34 58.415 49.165 57.495 50.19C62.73 56.91 58.09 66.155 49.725 66.845C49.725 66.845 49.905 68.675 50.09 71.36L55.695 68.5C56.31 68.185 57.06 68.43 57.375 69.045C57.69 69.66 57.445 70.415 56.83 70.725L50.26 74.08C50.295 74.74 50.33 75.425 50.365 76.125L54.785 73.865C55.4 73.55 56.15 73.795 56.465 74.41C56.78 75.025 56.535 75.78 55.92 76.09L50.46 78.88C50.48 79.57 50.49 80.265 50.5 80.96L53.875 79.235C54.49 78.92 55.24 79.165 55.555 79.78C55.87 80.395 55.625 81.15 55.01 81.46L50.485 83.77C50.48 84.08 50.47 84.39 50.46 84.695C50.445 85.11 50.415 85.515 50.38 85.92L52.96 84.6C53.575 84.285 54.325 84.53 54.64 85.145C54.955 85.76 54.71 86.515 54.095 86.825L49.94 88.945C48.77 94.76 46.02 99.68 45.63 103.445C45.61 103.62 45.61 103.79 45.615 103.955C56.455 98.765 62.7 91.835 63.23 84.38ZM65.725 84.555C65.125 92.945 58.385 100.61 46.705 106.215C47.365 106.725 48.285 106.915 49.35 106.565C49.89 106.385 51.135 105.815 52.735 104.885L53.9 106.21L53.355 104.515C55.015 103.51 56.975 102.155 58.915 100.47L60.49 101.785L59.46 99.985C61.3 98.325 63.085 96.375 64.535 94.15L65.98 94.815L64.845 93.675C66.455 91.08 67.6 88.125 67.84 84.845C68.075 81.68 68.475 79.015 68.975 76.74C70.975 69.05 74.845 66.16 76.64 63.55C79.37 59.575 80.49 57.47 77.015 55.36C76.165 58.175 74.485 61.535 72.105 64.42C68.425 68.89 66.595 72.335 65.725 84.555ZM216 85.92L199.945 101.975C200.18 109.215 198.91 116.495 196.13 123.3L213.175 106.255L216.005 109.085L140.225 184.865C120.075 205.015 87.285 205.015 67.135 184.865C63.1638 180.9 59.867 176.313 57.375 171.285L38.825 189.835L36 187.005L55.64 167.365C53.855 162.845 52.73 158.125 52.265 153.35L37.765 167.85L36 166.08L52.055 150.025C51.82 142.785 53.09 135.5 55.87 128.7L38.825 145.745L36 142.91L111.775 67.135C131.925 46.985 164.715 46.985 184.865 67.135C188.945 71.215 192.195 75.81 194.625 80.715L213.175 62.165L216.005 64.995L196.365 84.635C198.15 89.155 199.275 93.875 199.74 98.65L214.24 84.15L216 85.92ZM56.08 146L120.99 81.09C134.755 67.325 157.145 67.325 170.91 81.09C174.982 85.1562 177.993 90.1615 179.675 95.665L191.62 83.72C189.267 78.6021 186.022 73.9444 182.035 69.965C163.445 51.375 133.195 51.375 114.605 69.965L69.97 114.6C61.26 123.31 56.63 134.575 56.08 146ZM163.755 111.58L177.65 97.685C176.184 92.0732 173.249 86.9539 169.145 82.855C156.355 70.065 135.55 70.065 122.76 82.855L82.86 122.755C75.555 130.06 72.43 139.985 73.47 149.535L129 94.005C136.995 86.01 150 86.01 157.995 94.005C162.775 98.785 164.695 105.36 163.755 111.58ZM155.165 120.17L155.17 120.165C161.595 113.73 161.595 103.265 155.165 96.835C148.73 90.4 138.26 90.4 131.825 96.835L96.83 131.83C90.395 138.265 90.395 148.735 96.83 155.17C103.265 161.605 113.735 161.605 120.17 155.17L155.165 120.17ZM74.35 154.31C75.8156 159.922 78.7515 165.041 82.855 169.14C95.645 181.93 116.45 181.93 129.24 169.14L169.14 129.24C176.445 121.935 179.57 112.01 178.53 102.46L123 157.995C115.005 165.99 102 165.99 94.005 157.995C89.225 153.215 87.305 146.64 88.245 140.42L74.35 154.31ZM58.75 164.255L71.255 151.75C70.16 145.115 70.955 138.23 73.65 131.965L56.055 149.56C56.1771 154.569 57.0866 159.528 58.75 164.255ZM195.92 106L131.01 170.91C117.245 184.675 94.85 184.675 81.09 170.91C77.0175 166.844 74.0075 161.839 72.325 156.335L60.38 168.28C62.7327 173.398 65.9784 178.056 69.965 182.035C88.555 200.625 118.805 200.625 137.395 182.035L182.035 137.4L182.045 137.39C190.745 128.685 195.37 117.42 195.92 106ZM195.95 102.435C195.82 97.455 194.93 92.49 193.25 87.745L180.745 100.25C181.84 106.885 181.045 113.77 178.35 120.035L195.95 102.435ZM182.745 161.775L130.29 214.23L132.06 216L181.735 166.325C181.905 164.735 182.25 163.215 182.745 161.775ZM170.965 196.18L152.915 214.23L154.685 216L172.635 198.05C171.905 197.475 171.35 196.855 170.965 196.18ZM188.77 167.62C187.89 179.98 186 184.1 181.82 189.17C179.39 192.12 177.815 195.55 177.17 198.025C177.285 198.08 177.405 198.135 177.53 198.19C181.97 200.145 185.855 201.445 188.82 202.035C191.995 202.66 193.585 202.835 194.505 201.81C189.27 195.09 193.91 185.845 202.275 185.155C202.275 185.155 202.095 183.325 201.91 180.64L196.305 183.5C195.69 183.815 194.94 183.57 194.625 182.955C194.55 182.809 194.505 182.65 194.492 182.486C194.478 182.322 194.498 182.158 194.548 182.002C194.599 181.846 194.68 181.701 194.787 181.576C194.893 181.452 195.024 181.349 195.17 181.275L201.74 177.92C201.705 177.26 201.67 176.575 201.635 175.875L197.215 178.135C196.6 178.45 195.85 178.205 195.535 177.59C195.46 177.444 195.415 177.285 195.402 177.121C195.388 176.957 195.408 176.793 195.458 176.637C195.509 176.481 195.59 176.336 195.697 176.211C195.803 176.087 195.934 175.984 196.08 175.91L201.54 173.12C201.52 172.43 201.51 171.735 201.5 171.04L198.125 172.765C197.51 173.08 196.76 172.835 196.445 172.22C196.37 172.074 196.325 171.915 196.312 171.751C196.298 171.587 196.318 171.423 196.368 171.267C196.419 171.111 196.5 170.966 196.607 170.841C196.713 170.717 196.844 170.614 196.99 170.54L201.515 168.23C201.52 167.92 201.53 167.61 201.54 167.305C201.555 166.89 201.585 166.485 201.62 166.08L199.04 167.4C198.425 167.715 197.675 167.47 197.36 166.855C197.285 166.709 197.24 166.55 197.227 166.386C197.213 166.222 197.233 166.058 197.283 165.902C197.334 165.746 197.415 165.601 197.522 165.476C197.628 165.352 197.759 165.249 197.905 165.175L202.06 163.055C203.23 157.24 205.98 152.32 206.37 148.555C206.39 148.38 206.39 148.21 206.385 148.045C195.545 153.235 189.3 160.165 188.77 167.62ZM186.275 167.445C186.875 159.055 193.615 151.39 205.295 145.785C204.635 145.275 203.715 145.085 202.65 145.435C202.11 145.615 200.865 146.185 199.265 147.115L198.1 145.79L198.645 147.485C196.681 148.674 194.821 150.028 193.085 151.53L191.51 150.215L192.54 152.015C190.7 153.675 188.915 155.625 187.465 157.85L186.02 157.185L187.155 158.325C185.545 160.92 184.4 163.875 184.16 167.155C183.925 170.32 183.525 172.985 183.025 175.26C181.025 182.95 177.155 185.84 175.36 188.45C172.63 192.425 171.51 194.53 174.985 196.64C175.835 193.825 177.515 190.465 179.895 187.58C183.575 183.11 185.405 179.665 186.275 167.445Z" fill="#FFF0DA"/>
</svg>
