<svg width="252" height="252" viewBox="0 0 252 252" fill="none" xmlns="http://www.w3.org/2000/svg">
<path d="M68.78 132.025C69.4704 132.025 70.03 131.465 70.03 130.775C70.03 130.085 69.4704 129.525 68.78 129.525C68.0897 129.525 67.53 130.085 67.53 130.775C67.53 131.465 68.0897 132.025 68.78 132.025Z" fill="black"/>
<path d="M68.78 115.555C69.4704 115.555 70.03 114.996 70.03 114.305C70.03 113.615 69.4704 113.055 68.78 113.055C68.0897 113.055 67.53 113.615 67.53 114.305C67.53 114.996 68.0897 115.555 68.78 115.555Z" fill="black"/>
<path d="M69.9399 141.06C70.6303 141.06 71.1899 140.5 71.1899 139.81C71.1899 139.12 70.6303 138.56 69.9399 138.56C69.2496 138.56 68.6899 139.12 68.6899 139.81C68.6899 140.5 69.2496 141.06 69.9399 141.06Z" fill="black"/>
<path d="M77.605 130.895C78.2953 130.895 78.855 130.335 78.855 129.645C78.855 128.955 78.2953 128.395 77.605 128.395C76.9146 128.395 76.355 128.955 76.355 129.645C76.355 130.335 76.9146 130.895 77.605 130.895Z" fill="black"/>
<path d="M76.3799 123.155C77.0702 123.155 77.6299 122.595 77.6299 121.905C77.6299 121.214 77.0702 120.655 76.3799 120.655C75.6895 120.655 75.1299 121.214 75.1299 121.905C75.1299 122.595 75.6895 123.155 76.3799 123.155Z" fill="black"/>
<path d="M89.3398 110.885C90.0302 110.885 90.5898 110.325 90.5898 109.635C90.5898 108.944 90.0302 108.385 89.3398 108.385C88.6495 108.385 88.0898 108.944 88.0898 109.635C88.0898 110.325 88.6495 110.885 89.3398 110.885Z" fill="black"/>
<path d="M83.3398 123.82C84.0302 123.82 84.5898 123.26 84.5898 122.57C84.5898 121.879 84.0302 121.32 83.3398 121.32C82.6495 121.32 82.0898 121.879 82.0898 122.57C82.0898 123.26 82.6495 123.82 83.3398 123.82Z" fill="black"/>
<path d="M76.8501 116.675C77.5405 116.675 78.1001 116.115 78.1001 115.425C78.1001 114.734 77.5405 114.175 76.8501 114.175C76.1597 114.175 75.6001 114.734 75.6001 115.425C75.6001 116.115 76.1597 116.675 76.8501 116.675Z" fill="black"/>
<path d="M72.5801 104.15C73.2704 104.15 73.8301 103.59 73.8301 102.9C73.8301 102.21 73.2704 101.65 72.5801 101.65C71.8897 101.65 71.3301 102.21 71.3301 102.9C71.3301 103.59 71.8897 104.15 72.5801 104.15Z" fill="black"/>
<path d="M79.8301 140.09C80.5204 140.09 81.0801 139.53 81.0801 138.84C81.0801 138.149 80.5204 137.59 79.8301 137.59C79.1397 137.59 78.5801 138.149 78.5801 138.84C78.5801 139.53 79.1397 140.09 79.8301 140.09Z" fill="black"/>
<path d="M80.6499 106.5C81.3403 106.5 81.8999 105.94 81.8999 105.25C81.8999 104.56 81.3403 104 80.6499 104C79.9595 104 79.3999 104.56 79.3999 105.25C79.3999 105.94 79.9595 106.5 80.6499 106.5Z" fill="black"/>
<path d="M64.98 122.135C65.6703 122.135 66.23 121.575 66.23 120.885C66.23 120.194 65.6703 119.635 64.98 119.635C64.2896 119.635 63.73 120.194 63.73 120.885C63.73 121.575 64.2896 122.135 64.98 122.135Z" fill="black"/>
<path d="M86.6201 100.08C87.3105 100.08 87.8701 99.5204 87.8701 98.8301C87.8701 98.1397 87.3105 97.5801 86.6201 97.5801C85.9298 97.5801 85.3701 98.1397 85.3701 98.8301C85.3701 99.5204 85.9298 100.08 86.6201 100.08Z" fill="black"/>
<path d="M115.945 90.025C130.865 90.025 142.96 77.93 142.96 63.01C142.96 48.09 130.865 36 115.945 36C101.025 36 88.9299 48.095 88.9299 63.015C88.9299 77.935 101.03 90.025 115.945 90.025ZM115.945 87.525C113.485 87.525 111.115 87.155 108.87 86.48C112.685 81.62 116.6 74.19 117.15 63.805C120.72 61.99 124.165 60.865 127.385 60.24L127.39 60.255C127.43 60.42 130.705 75.095 121.035 86.99C119.395 87.34 117.695 87.525 115.945 87.525ZM140.46 63.015C140.46 73.335 134.045 82.18 124.995 85.79C132.455 74.27 130.19 61.47 129.865 59.855C133.825 59.365 137.36 59.59 140.28 60.07C140.39 61.035 140.46 62.015 140.46 63.015ZM139.805 57.4C133.69 56.53 125.295 56.855 116.03 61.575C112.675 59.39 109.975 56.97 107.825 54.49L107.835 54.48C107.96 54.365 119.015 44.195 134.145 46.61C136.91 49.6729 138.857 53.3842 139.805 57.4ZM115.945 38.5C121.675 38.5 126.945 40.48 131.125 43.785C117.43 43.095 107.485 51.45 106.255 52.54C103.855 49.36 102.275 46.19 101.23 43.425C105.33 40.335 110.43 38.5 115.945 38.5ZM99.1599 45.17C101.465 50.9 105.945 58 114.655 63.66C114.445 67.66 113.695 71.205 112.625 74.31L112.61 74.305C112.445 74.255 98.1049 69.76 92.6349 55.44C93.9249 51.48 96.1949 47.965 99.1599 45.17ZM91.6949 59.45C97.9399 71.675 110.165 76.12 111.725 76.64C110.362 79.8543 108.545 82.8565 106.33 85.555C97.5799 81.81 91.4349 73.115 91.4349 63.01C91.4349 61.805 91.5249 60.615 91.6949 59.45Z" fill="black"/>
<path d="M96.26 114.28C96.9504 114.28 97.51 113.72 97.51 113.03C97.51 112.339 96.9504 111.78 96.26 111.78C95.5697 111.78 95.01 112.339 95.01 113.03C95.01 113.72 95.5697 114.28 96.26 114.28Z" fill="black"/>
<path d="M94.1602 121.93C94.8505 121.93 95.4102 121.371 95.4102 120.68C95.4102 119.99 94.8505 119.43 94.1602 119.43C93.4698 119.43 92.9102 119.99 92.9102 120.68C92.9102 121.371 93.4698 121.93 94.1602 121.93Z" fill="black"/>
<path d="M88.9448 130.97C89.6352 130.97 90.1948 130.411 90.1948 129.72C90.1948 129.03 89.6352 128.47 88.9448 128.47C88.2545 128.47 87.6948 129.03 87.6948 129.72C87.6948 130.411 88.2545 130.97 88.9448 130.97Z" fill="black"/>
<path d="M187.02 132.365C187.71 132.365 188.27 131.806 188.27 131.115C188.27 130.425 187.71 129.865 187.02 129.865C186.33 129.865 185.77 130.425 185.77 131.115C185.77 131.806 186.33 132.365 187.02 132.365Z" fill="black"/>
<path d="M157.84 132.57C158.53 132.57 159.09 132.01 159.09 131.32C159.09 130.629 158.53 130.07 157.84 130.07C157.149 130.07 156.59 130.629 156.59 131.32C156.59 132.01 157.149 132.57 157.84 132.57Z" fill="black"/>
<path d="M62.3398 135.74C63.0302 135.74 63.5898 135.181 63.5898 134.49C63.5898 133.8 63.0302 133.24 62.3398 133.24C61.6495 133.24 61.0898 133.8 61.0898 134.49C61.0898 135.181 61.6495 135.74 62.3398 135.74Z" fill="black"/>
<path d="M155.74 140.22C156.43 140.22 156.99 139.661 156.99 138.97C156.99 138.28 156.43 137.72 155.74 137.72C155.05 137.72 154.49 138.28 154.49 138.97C154.49 139.661 155.05 140.22 155.74 140.22Z" fill="black"/>
<path d="M168.66 130.68C169.351 130.68 169.91 130.121 169.91 129.43C169.91 128.74 169.351 128.18 168.66 128.18C167.97 128.18 167.41 128.74 167.41 129.43C167.41 130.121 167.97 130.68 168.66 130.68Z" fill="black"/>
<path d="M162.655 143.615C163.345 143.615 163.905 143.056 163.905 142.365C163.905 141.675 163.345 141.115 162.655 141.115C161.965 141.115 161.405 141.675 161.405 142.365C161.405 143.056 161.965 143.615 162.655 143.615Z" fill="black"/>
<path d="M163.05 123.53C163.74 123.53 164.3 122.97 164.3 122.28C164.3 121.589 163.74 121.03 163.05 121.03C162.36 121.03 161.8 121.589 161.8 122.28C161.8 122.97 162.36 123.53 163.05 123.53Z" fill="black"/>
<path d="M136.055 161.975C121.135 161.975 109.04 174.07 109.04 188.99C109.04 203.91 121.135 216 136.055 216C150.975 216 163.07 203.905 163.07 188.985C163.07 174.065 150.97 161.975 136.055 161.975ZM136.055 164.475C138.515 164.475 140.885 164.845 143.13 165.52C139.315 170.38 135.4 177.81 134.85 188.195C131.28 190.01 127.835 191.135 124.615 191.76L124.61 191.745C124.57 191.58 121.295 176.905 130.965 165.01C132.605 164.66 134.305 164.475 136.055 164.475ZM111.54 188.985C111.54 178.665 117.955 169.82 127.005 166.21C119.545 177.73 121.81 190.53 122.135 192.145C118.175 192.635 114.64 192.41 111.72 191.93C111.604 190.953 111.544 189.969 111.54 188.985ZM112.195 194.6C118.31 195.47 126.705 195.145 135.97 190.425C139.325 192.61 142.025 195.03 144.175 197.51L144.165 197.52C144.04 197.635 132.985 207.805 117.855 205.39C115.09 202.327 113.143 198.616 112.195 194.6ZM136.055 213.5C130.325 213.5 125.055 211.52 120.875 208.215C134.57 208.905 144.515 200.55 145.745 199.46C148.145 202.64 149.725 205.81 150.77 208.575C146.67 211.665 141.57 213.5 136.055 213.5ZM152.84 206.83C150.535 201.1 146.055 194 137.345 188.34C137.555 184.34 138.305 180.795 139.375 177.69L139.39 177.695C139.555 177.745 153.895 182.24 159.365 196.56C158.075 200.52 155.805 204.035 152.84 206.83ZM160.305 192.55C154.06 180.325 141.835 175.88 140.275 175.36C141.638 172.146 143.455 169.144 145.67 166.445C154.42 170.19 160.565 178.885 160.565 188.99C160.565 190.195 160.475 191.385 160.305 192.55Z" fill="black"/>
<path d="M196.945 127.44C197.635 127.44 198.195 126.88 198.195 126.19C198.195 125.5 197.635 124.94 196.945 124.94C196.255 124.94 195.695 125.5 195.695 126.19C195.695 126.88 196.255 127.44 196.945 127.44Z" fill="black"/>
<path d="M194.62 135.145C195.31 135.145 195.87 134.585 195.87 133.895C195.87 133.205 195.31 132.645 194.62 132.645C193.93 132.645 193.37 133.205 193.37 133.895C193.37 134.585 193.93 135.145 194.62 135.145Z" fill="black"/>
<path d="M189.66 118.76C190.351 118.76 190.91 118.2 190.91 117.51C190.91 116.819 190.351 116.26 189.66 116.26C188.97 116.26 188.41 116.819 188.41 117.51C188.41 118.2 188.97 118.76 189.66 118.76Z" fill="black"/>
<path d="M216 126L184.245 94.2402L182.475 96.0102L212.465 126L170.645 167.82L138.885 136.06L208.94 66.0052L185.99 43.0552L115.94 113.11L55.415 52.5852L52.585 55.4152L79.585 82.4152L36 126L67.76 157.76L69.53 155.99L39.535 126L81.355 84.1802L113.115 115.94L43.06 185.99L66.01 208.94L136.065 138.885L196.59 199.41L199.42 196.58L172.42 169.58L216 126ZM136.59 134.825L129.535 127.77L136.59 120.715L143.645 127.77L136.59 134.825ZM67.775 171.88L74.83 164.825L81.885 171.88L74.83 178.935L67.775 171.88ZM73.065 180.705L66.01 187.76L58.955 180.705L66.01 173.65L73.065 180.705ZM76.6 163.06L83.655 156.005L90.71 163.06L83.655 170.115L76.6 163.06ZM85.42 154.235L92.475 147.18L99.53 154.235L92.475 161.29L85.42 154.235ZM94.245 145.415L101.3 138.36L108.355 145.415L101.3 152.47L94.245 145.415ZM103.065 136.59L110.12 129.535L117.175 136.59L110.12 143.645L103.065 136.59ZM111.89 127.77L118.945 120.715L126 127.77L118.945 134.825L111.89 127.77ZM120.71 118.945L127.765 111.89L134.82 118.945L127.77 126L120.71 118.945ZM178.94 74.8302L171.885 81.8852L164.83 74.8302L171.885 67.7752L178.94 74.8302ZM173.65 66.0052L180.705 58.9502L187.76 66.0052L180.705 73.0602L173.65 66.0052ZM170.115 83.6552L163.06 90.7102L156.005 83.6552L163.06 76.6002L170.115 83.6552ZM161.29 92.4752L154.235 99.5302L147.18 92.4752L154.235 85.4202L161.29 92.4752ZM152.47 101.3L145.415 108.355L138.36 101.3L145.415 94.2452L152.47 101.3ZM143.645 110.12L136.59 117.175L129.535 110.12L136.59 103.065L143.645 110.12ZM145.415 126L138.36 118.945L145.415 111.89L152.47 118.945L145.415 126ZM154.235 117.175L147.18 110.12L154.235 103.065L161.29 110.12L154.235 117.175ZM163.06 108.355L156.005 101.3L163.06 94.2452L170.115 101.3L163.06 108.355ZM171.88 99.5302L164.825 92.4752L171.88 85.4202L178.935 92.4752L171.88 99.5302ZM180.705 90.7102L173.65 83.6552L180.705 76.6002L187.76 83.6552L180.705 90.7102ZM189.53 81.8852L182.475 74.8302L189.53 67.7752L196.585 74.8302L189.53 81.8852ZM205.405 66.0102L198.35 73.0652L191.295 66.0102L198.35 58.9552L205.405 66.0102ZM196.585 57.1852L189.53 64.2402L182.475 57.1852L189.53 50.1302L196.585 57.1852ZM46.595 185.99L185.995 46.5902L187.765 48.3602L48.365 187.76L46.595 185.99ZM50.13 189.53L57.185 182.475L64.24 189.53L57.185 196.585L50.13 189.53ZM66.005 205.405L58.95 198.35L66.005 191.295L73.06 198.35L66.005 205.405ZM74.83 196.585L67.775 189.53L74.83 182.475L81.885 189.53L74.83 196.585ZM83.655 187.76L76.6 180.705L83.655 173.65L90.71 180.705L83.655 187.76ZM92.475 178.935L85.42 171.88L92.475 164.825L99.53 171.88L92.475 178.935ZM101.3 170.115L94.245 163.06L101.3 156.005L108.355 163.06L101.3 170.115ZM110.12 161.29L103.065 154.235L110.12 147.18L117.175 154.235L110.12 161.29ZM118.945 152.47L111.89 145.415L118.945 138.36L126 145.415L118.945 152.47ZM127.77 143.645L120.715 136.59L127.77 129.535L134.825 136.59L127.77 143.645Z" fill="black"/>
<path d="M165.38 154.42C166.07 154.42 166.63 153.86 166.63 153.17C166.63 152.48 166.07 151.92 165.38 151.92C164.69 151.92 164.13 152.48 164.13 153.17C164.13 153.86 164.69 154.42 165.38 154.42Z" fill="black"/>
<path d="M175.62 131.345C176.31 131.345 176.87 130.786 176.87 130.095C176.87 129.405 176.31 128.845 175.62 128.845C174.93 128.845 174.37 129.405 174.37 130.095C174.37 130.786 174.93 131.345 175.62 131.345Z" fill="black"/>
<path d="M183.22 122.475C183.91 122.475 184.47 121.915 184.47 121.225C184.47 120.535 183.91 119.975 183.22 119.975C182.53 119.975 181.97 120.535 181.97 121.225C181.97 121.915 182.53 122.475 183.22 122.475Z" fill="black"/>
<path d="M182.055 113.44C182.745 113.44 183.305 112.88 183.305 112.19C183.305 111.5 182.745 110.94 182.055 110.94C181.365 110.94 180.805 111.5 180.805 112.19C180.805 112.88 181.365 113.44 182.055 113.44Z" fill="black"/>
<path d="M55.05 127.06C55.7404 127.06 56.3 126.5 56.3 125.81C56.3 125.12 55.7404 124.56 55.05 124.56C54.3597 124.56 53.8 125.12 53.8 125.81C53.8 126.5 54.3597 127.06 55.05 127.06Z" fill="black"/>
<path d="M57.375 119.355C58.0654 119.355 58.625 118.795 58.625 118.105C58.625 117.415 58.0654 116.855 57.375 116.855C56.6846 116.855 56.125 117.415 56.125 118.105C56.125 118.795 56.6846 119.355 57.375 119.355Z" fill="black"/>
<path d="M183.22 138.945C183.91 138.945 184.47 138.385 184.47 137.695C184.47 137.004 183.91 136.445 183.22 136.445C182.53 136.445 181.97 137.004 181.97 137.695C181.97 138.385 182.53 138.945 183.22 138.945Z" fill="black"/>
<path d="M174.39 123.605C175.08 123.605 175.64 123.045 175.64 122.355C175.64 121.665 175.08 121.105 174.39 121.105C173.7 121.105 173.14 121.665 173.14 122.355C173.14 123.045 173.7 123.605 174.39 123.605Z" fill="black"/>
<path d="M179.42 150.35C180.11 150.35 180.67 149.79 180.67 149.1C180.67 148.41 180.11 147.85 179.42 147.85C178.73 147.85 178.17 148.41 178.17 149.1C178.17 149.79 178.73 150.35 179.42 150.35Z" fill="black"/>
<path d="M175.15 137.825C175.84 137.825 176.4 137.266 176.4 136.575C176.4 135.885 175.84 135.325 175.15 135.325C174.46 135.325 173.9 135.885 173.9 136.575C173.9 137.266 174.46 137.825 175.15 137.825Z" fill="black"/>
<path d="M171.35 148C172.04 148 172.6 147.44 172.6 146.75C172.6 146.06 172.04 145.5 171.35 145.5C170.66 145.5 170.1 146.06 170.1 146.75C170.1 147.44 170.66 148 171.35 148Z" fill="black"/>
<path d="M172.17 114.41C172.86 114.41 173.42 113.851 173.42 113.16C173.42 112.47 172.86 111.91 172.17 111.91C171.48 111.91 170.92 112.47 170.92 113.16C170.92 113.851 171.48 114.41 172.17 114.41Z" fill="black"/>
</svg>
