<svg width="252" height="252" viewBox="0 0 252 252" fill="none" xmlns="http://www.w3.org/2000/svg">
<path d="M102.02 64.09C104.69 61.42 105.815 59.12 106.495 56.865L108.47 58.84C107.665 61.005 106.35 63.3 103.79 65.86C99.47 70.18 95.905 70.96 92.455 71.72C89.215 72.43 86.155 73.105 82.355 76.905L80.585 75.14C84.905 70.82 88.47 70.04 91.92 69.28C95.16 68.56 98.22 67.89 102.02 64.09ZM109.645 54.525C110.305 51.515 110.94 48.66 114.07 45.22L112.3 43.45C109.065 46.965 108.12 49.985 107.45 52.875L109.545 54.97C109.58 54.82 109.615 54.67 109.645 54.525ZM189.89 133.78L194.485 138.375L203.83 129.035L199.235 124.44L189.89 133.78ZM145.1 42.21C145.905 41.405 146.585 40.625 147.17 39.865L145.385 38.08C144.825 38.84 144.155 39.625 143.335 40.445C141.205 42.575 139.305 43.725 137.475 44.445L139.38 46.35C141.16 45.515 143.045 44.265 145.1 42.21ZM100.815 45.69C101.475 42.68 102.12 39.825 105.245 36.39L105.615 36H102.295C99.995 38.935 99.2 41.535 98.62 44.04L100.715 46.135C100.75 45.985 100.78 45.835 100.815 45.69ZM124.935 39.235C125.575 39.095 126.22 38.95 126.87 38.79L124.79 36.71L124.4 36.8C121.435 37.45 118.385 38.13 114.845 41.045L116.625 42.825C119.63 40.41 122.22 39.83 124.935 39.235ZM36 135.135L40.595 139.73L49.935 130.39L45.34 125.795L36 135.135ZM83.62 62.88C87.07 62.125 90.635 61.34 94.955 57.02C97.515 54.46 98.83 52.165 99.635 50L97.66 48.025C96.98 50.28 95.855 52.585 93.185 55.25C89.385 59.05 86.325 59.725 83.085 60.435C79.635 61.19 76.07 61.975 71.75 66.295L73.52 68.06C77.32 64.265 80.38 63.595 83.62 62.88ZM60.34 110.795L64.935 115.39L74.28 106.05L69.685 101.455L60.34 110.795ZM113.14 111.375L54.885 53.12L53.115 54.885L111.315 113.08C111.92 112.51 112.53 111.94 113.14 111.375ZM86.415 93.915L81.82 89.32L72.515 98.625L77.11 103.22L86.415 93.915ZM148.21 55.18C149.995 54.35 151.875 53.1 153.935 51.04C154.74 50.235 155.42 49.455 156.005 48.695L154.22 46.91C153.66 47.67 152.99 48.455 152.17 49.275C150.04 51.405 148.14 52.555 146.31 53.275L148.21 55.18ZM118.48 63.355C119.14 60.345 119.775 57.49 122.905 54.05L121.135 52.28C117.9 55.795 116.955 58.815 116.285 61.705L118.38 63.8C118.415 63.655 118.45 63.505 118.48 63.355ZM110.855 72.92C107.055 76.72 103.995 77.395 100.755 78.105C97.305 78.86 93.74 79.645 89.425 83.965L91.195 85.73C94.995 81.93 98.055 81.255 101.295 80.545C104.745 79.79 108.31 79.005 112.625 74.685C115.185 72.125 116.5 69.83 117.305 67.665L115.33 65.69C114.645 67.95 113.52 70.255 110.855 72.92ZM57.515 113.625L48.17 122.965L52.765 127.56L62.105 118.22L57.515 113.625ZM157.045 64.015C158.83 63.185 160.715 61.935 162.77 59.875C163.575 59.07 164.255 58.29 164.84 57.53L163.055 55.745C162.495 56.505 161.825 57.29 161.005 58.11C158.875 60.24 156.975 61.39 155.145 62.11L157.045 64.015ZM151.435 65.735C152.075 65.595 152.72 65.455 153.37 65.29L151.29 63.21C151.16 63.24 151.03 63.27 150.9 63.295C147.935 63.945 144.885 64.625 141.345 67.54L143.125 69.32C146.13 66.91 148.72 66.33 151.435 65.735ZM110.12 89.38C113.57 88.62 117.135 87.84 121.455 83.52C124.015 80.96 125.33 78.665 126.135 76.5L124.16 74.525C123.48 76.78 122.355 79.085 119.685 81.75C115.885 85.55 112.825 86.225 109.585 86.935C106.135 87.695 102.57 88.475 98.25 92.795L100.02 94.56C103.82 90.765 106.885 90.095 110.12 89.38ZM127.315 72.19C127.975 69.18 128.61 66.325 131.74 62.885L129.97 61.115C126.735 64.63 125.79 67.65 125.12 70.54L127.215 72.635C127.25 72.485 127.28 72.34 127.315 72.19ZM136.15 81.025C136.81 78.015 137.445 75.16 140.58 71.72L138.81 69.95C135.575 73.465 134.63 76.485 133.96 79.375L136.055 81.47C136.085 81.32 136.115 81.17 136.15 81.025ZM144.54 56.455L142.46 54.375C142.33 54.405 142.2 54.435 142.07 54.46C139.105 55.11 136.055 55.79 132.515 58.705L134.295 60.485C137.3 58.08 139.89 57.5 142.61 56.905C143.245 56.76 143.885 56.62 144.54 56.455ZM118.955 98.215C122.405 97.46 125.97 96.675 130.29 92.355C132.85 89.795 134.165 87.5 134.97 85.335L132.995 83.36C132.315 85.615 131.19 87.92 128.52 90.585C124.72 94.385 121.66 95.06 118.42 95.77C114.97 96.525 111.405 97.31 107.085 101.63L108.85 103.395C112.655 99.6 115.715 98.925 118.955 98.215ZM125.455 51.65C128.46 49.245 131.05 48.665 133.77 48.07C134.41 47.93 135.055 47.79 135.705 47.625L133.625 45.545C133.495 45.575 133.365 45.605 133.235 45.63C130.27 46.28 127.22 46.96 123.68 49.875L125.455 51.65ZM151.185 206.31C150.525 209.32 149.88 212.175 146.755 215.61L146.385 216H149.705C152.005 213.065 152.8 210.465 153.38 207.96L151.285 205.865C151.25 206.015 151.22 206.165 151.185 206.31ZM160.08 182.725C161.7 182.37 163.345 182.005 165.08 181.275C164.83 180.45 164.62 179.63 164.44 178.825C162.775 179.575 161.18 179.925 159.54 180.285C156.09 181.045 152.525 181.825 148.205 186.145C145.645 188.705 144.33 191 143.525 193.165L145.5 195.14C146.18 192.885 147.305 190.58 149.975 187.915C153.78 184.11 156.84 183.44 160.08 182.725ZM169.03 188.975C168.815 189.025 168.595 189.07 168.38 189.12C164.93 189.875 161.365 190.66 157.045 194.98C154.485 197.54 153.17 199.835 152.365 202L154.34 203.975C155.02 201.72 156.145 199.415 158.815 196.75C162.615 192.95 165.675 192.275 168.915 191.565C169.605 191.415 170.3 191.26 171.005 191.08L170.19 190.27C169.78 189.85 169.395 189.42 169.03 188.975ZM127.065 212.765C126.425 212.905 125.78 213.05 125.13 213.21L127.21 215.29L127.6 215.2C130.565 214.55 133.615 213.87 137.155 210.955L135.375 209.175C132.37 211.59 129.78 212.17 127.065 212.765ZM126.545 200.35C123.54 202.755 120.95 203.335 118.23 203.93C117.59 204.07 116.945 204.21 116.295 204.375L118.375 206.455C118.505 206.425 118.635 206.395 118.765 206.37C121.73 205.72 124.78 205.04 128.32 202.125L126.545 200.35ZM142.355 197.475C141.695 200.485 141.06 203.34 137.93 206.78L139.7 208.55C142.935 205.035 143.88 202.015 144.55 199.125L142.455 197.03C142.42 197.18 142.385 197.33 142.355 197.475ZM191.66 141.205L187.065 136.61L177.72 145.95L182.315 150.545L191.66 141.205ZM165.585 158.085L170.18 162.68L179.485 153.375L174.89 148.78L165.585 158.085ZM211.405 112.27L202.065 121.61L206.66 126.205L216 116.865L211.405 112.27ZM202.17 186.62C203.13 187.58 203.655 188.85 203.655 190.2C203.655 191.55 203.13 192.82 202.175 193.775L197.96 197.99L197.915 198.035L193.67 202.28C193.202 202.751 192.644 203.124 192.031 203.378C191.417 203.632 190.759 203.762 190.095 203.76C188.745 203.76 187.475 203.235 186.52 202.28L172.315 188.135C166.655 182.475 166.505 172.26 166.58 169.4L136.64 139.46C135.075 141.115 133.5 142.765 131.89 144.405C131 145.315 130.08 146.19 129.125 147.025C128.17 147.86 127.19 148.67 126.175 149.435C122.41 152.275 113.94 158.83 101.885 167.5C89.835 176.17 74.2 186.95 56.11 198.24C55.345 198.715 54.525 198.515 54.01 198C53.495 197.485 53.29 196.66 53.77 195.9C65.06 177.81 75.84 162.175 84.51 150.125C93.18 138.075 99.735 129.605 102.575 125.84C103.34 124.825 104.145 123.84 104.985 122.89C105.825 121.94 106.7 121.015 107.605 120.125C124.37 103.7 141.965 89.56 157.445 78.28C172.925 67 186.295 58.58 194.61 53.595C195.85 52.85 197.175 53.185 198.005 54.015C198.835 54.845 199.165 56.17 198.425 57.41C193.44 65.725 185.02 79.095 173.74 94.575C164.215 107.65 152.64 122.23 139.375 136.55L169.575 166.75C172.825 166.7 182.53 167.04 187.975 172.485L202.17 186.62ZM139.45 128.685C145.105 121.795 146.81 115.035 141.99 110.21C137.165 105.385 130.405 107.09 123.515 112.75C116.015 118.905 104.385 127.215 114.685 137.515C121.825 144.655 128.01 141.255 133.18 136.005L126 128.83L123.85 130.98C123.474 131.355 122.965 131.565 122.435 131.565C121.905 131.565 121.396 131.355 121.02 130.98C120.645 130.604 120.435 130.095 120.435 129.565C120.435 129.035 120.645 128.526 121.02 128.15L128.145 121.025C128.521 120.65 129.03 120.44 129.56 120.44C130.09 120.44 130.599 120.65 130.975 121.025C131.35 121.401 131.56 121.91 131.56 122.44C131.56 122.97 131.35 123.479 130.975 123.855L128.825 126.005L135.865 133.045C137.135 131.555 138.325 130.055 139.45 128.685ZM189.345 189.33C187.32 185.905 184.725 182.985 181.965 180.18C179.16 177.42 176.24 174.83 172.815 172.8C174.845 176.22 177.435 179.145 180.195 181.95C183 184.71 185.92 187.305 189.345 189.33ZM100.565 186.265C99.925 186.405 99.28 186.545 98.63 186.71L100.71 188.79C100.84 188.76 100.97 188.73 101.1 188.705C104.065 188.055 107.115 187.375 110.655 184.46L108.875 182.68C105.87 185.09 103.28 185.67 100.565 186.265ZM141.88 162.62C138.43 163.38 134.865 164.16 130.545 168.48C127.985 171.04 126.67 173.335 125.865 175.5L127.84 177.475C128.52 175.22 129.645 172.915 132.315 170.25C136.115 166.45 139.175 165.775 142.415 165.065C145.64 164.355 148.97 163.625 152.92 159.995L151.15 158.225C147.725 161.33 144.88 161.96 141.88 162.62ZM106.9 209.79C106.16 210.526 105.469 211.309 104.83 212.135L106.615 213.92C107.175 213.16 107.845 212.375 108.665 211.555C110.795 209.425 112.695 208.275 114.525 207.555L112.62 205.65C110.84 206.485 108.955 207.735 106.9 209.79ZM124.685 179.81C124.025 182.82 123.39 185.675 120.26 189.115L122.03 190.885C125.265 187.37 126.21 184.35 126.88 181.46L124.785 179.365C124.75 179.515 124.72 179.66 124.685 179.81ZM141.145 179.08C144.945 175.28 148.005 174.605 151.245 173.895C154.47 173.185 157.8 172.455 161.75 168.825L159.98 167.055C156.555 170.165 153.71 170.795 150.705 171.455C147.255 172.21 143.69 172.995 139.375 177.315C136.815 179.875 135.5 182.17 134.695 184.335L136.67 186.31C137.355 184.05 138.48 181.745 141.145 179.08ZM103.785 196.82C102 197.65 100.12 198.9 98.06 200.96C97.32 201.696 96.6285 202.479 95.99 203.305L97.775 205.09C98.335 204.33 99.005 203.545 99.825 202.725C101.955 200.595 103.855 199.445 105.685 198.725L103.785 196.82ZM133.52 188.645C132.86 191.655 132.225 194.51 129.095 197.95L130.865 199.72C134.1 196.205 135.045 193.185 135.715 190.295L133.62 188.2C133.585 188.345 133.55 188.495 133.52 188.645ZM133.045 153.785C129.595 154.54 126.03 155.325 121.71 159.645C119.15 162.205 117.835 164.5 117.03 166.665L119.005 168.64C119.685 166.385 120.81 164.08 123.48 161.415C127.28 157.615 130.34 156.94 133.58 156.23C136.805 155.52 140.135 154.79 144.085 151.16L142.315 149.39C138.895 152.495 136.045 153.125 133.045 153.785ZM94.955 187.985C93.17 188.815 91.285 190.065 89.23 192.125C88.49 192.861 87.7985 193.644 87.16 194.47L88.945 196.255C89.505 195.495 90.175 194.71 90.995 193.89C93.125 191.76 95.025 190.61 96.855 189.89L94.955 187.985ZM107.46 195.545L109.54 197.625C109.67 197.595 109.8 197.565 109.93 197.54C112.895 196.89 115.945 196.21 119.485 193.295L117.705 191.515C114.7 193.92 112.11 194.5 109.39 195.095C108.755 195.24 108.115 195.38 107.46 195.545ZM115.85 170.975C115.19 173.985 114.555 176.84 111.42 180.28L113.19 182.05C116.425 178.535 117.37 175.515 118.04 172.625L115.945 170.53C115.915 170.68 115.885 170.83 115.85 170.975Z" fill="#FFF0DA"/>
</svg>
