<svg width="252" height="252" viewBox="0 0 252 252" fill="none" xmlns="http://www.w3.org/2000/svg">
<path d="M206.5 106.245C208.825 104.935 211.23 103.585 216 103.585V106.085C211.885 106.085 209.865 107.22 207.73 108.425C205.405 109.735 203 111.085 198.23 111.085C193.46 111.085 191.055 109.73 188.73 108.425C186.59 107.22 184.57 106.085 180.455 106.085C176.34 106.085 174.32 107.22 172.18 108.425C169.855 109.735 167.45 111.085 162.68 111.085C157.91 111.085 155.505 109.73 153.18 108.425C152.48 108.03 151.795 107.65 151.05 107.31L152.925 105.435C153.44 105.7 153.925 105.975 154.41 106.245C156.55 107.45 158.57 108.585 162.685 108.585C166.8 108.585 168.82 107.45 170.96 106.245C173.285 104.935 175.69 103.585 180.46 103.585C185.23 103.585 187.635 104.94 189.96 106.245C192.1 107.45 194.12 108.585 198.235 108.585C202.345 108.585 204.365 107.45 206.5 106.245ZM198.23 98.405C194.115 98.405 192.095 97.27 189.955 96.065C187.63 94.755 185.225 93.405 180.455 93.405C175.685 93.405 173.28 94.76 170.955 96.065C168.815 97.27 166.795 98.405 162.68 98.405C161.725 98.405 160.88 98.345 160.125 98.235L158 100.36C159.285 100.695 160.8 100.91 162.68 100.91C167.45 100.91 169.855 99.555 172.18 98.25C174.32 97.045 176.34 95.91 180.455 95.91C184.57 95.91 186.59 97.045 188.73 98.25C191.055 99.56 193.46 100.91 198.23 100.91C203 100.91 205.405 99.555 207.73 98.25C209.87 97.045 211.885 95.91 216 95.91V93.41C211.23 93.41 208.825 94.765 206.5 96.07C204.365 97.27 202.345 98.405 198.23 98.405ZM206.5 75.705C204.36 76.91 202.345 78.045 198.23 78.045C194.115 78.045 192.095 76.91 189.955 75.705C188.48 74.875 186.97 74.03 184.845 73.52L182.69 75.675C185.38 76.005 187.02 76.92 188.73 77.885C191.055 79.195 193.46 80.545 198.23 80.545C203 80.545 205.405 79.19 207.73 77.885C209.87 76.68 211.885 75.545 216 75.545V73.045C211.23 73.045 208.825 74.395 206.5 75.705ZM198.23 88.225C194.115 88.225 192.095 87.09 189.955 85.885C187.63 84.575 185.225 83.225 180.455 83.225C177.635 83.225 175.645 83.7 174.005 84.355L168.545 89.815C169.94 89.32 171.07 88.69 172.18 88.065C174.32 86.86 176.34 85.725 180.455 85.725C184.57 85.725 186.59 86.86 188.73 88.065C191.055 89.375 193.46 90.725 198.23 90.725C203 90.725 205.405 89.37 207.73 88.065C209.87 86.86 211.885 85.725 216 85.725V83.225C211.23 83.225 208.825 84.58 206.5 85.885C204.365 87.09 202.345 88.225 198.23 88.225ZM157.56 43.415L157.55 58H154.05C147.415 58 141.72 60.47 137.59 65.14C132.7 70.665 130.22 78.92 130.22 89.675V104.06H141.575L139.075 106.56H130.22V115.415L127.72 117.915V89.675C127.72 78.29 130.41 69.48 135.72 63.48C138.73 60.075 142.48 57.725 146.76 56.495H82.41C106.255 61.235 124.285 82.32 124.285 107.54V121.35L121.785 123.85V107.54C121.785 107.21 121.78 106.885 121.775 106.56H95.92C106.66 108.955 114.395 115.67 119.02 126.62L117.1 128.54C111.69 114.945 101.355 108.06 86.32 108.06H78.14L72.495 100.35H36V96.35H116.755V104.06H121.655C119.86 78.36 98.385 58 72.235 58H36V54H101.03L88.725 41.645C87.765 40.68 87.49 39.3 88.015 38.04C88.535 36.78 89.71 36 91.07 36H150.14C154.23 36 157.56 39.325 157.56 43.415ZM83.945 100.35H75.58L78.3 104.06H81.23L83.945 100.35ZM109.28 100.35H87.045L84.33 104.06H106.565L109.28 100.35ZM114.255 100.35H112.375L109.66 104.06H114.255V100.35ZM125.86 45H140.06V38.5H125.86V45ZM106.665 47.5H98.09L104.565 54H106.67V47.5H106.665ZM106.665 38.5H91.075C90.59 38.5 90.39 38.85 90.33 39C90.27 39.15 90.16 39.535 90.505 39.88L95.595 45H106.66V38.5H106.665ZM123.36 47.5H109.16V54H123.36V47.5ZM123.36 38.5H109.16V45H123.36V38.5ZM125.86 54H140.06V47.5H125.86V54ZM155.055 47.5H142.56V54H155.05L155.055 47.5ZM155.06 43.415C155.06 40.705 152.855 38.5 150.145 38.5H142.56V45H155.06V43.415ZM53.77 143.415C57.885 143.415 59.905 144.55 62.045 145.755C64.37 147.065 66.775 148.415 71.545 148.415C76.315 148.415 78.72 147.06 81.045 145.755C83.185 144.55 85.205 143.415 89.32 143.415C93.435 143.415 95.455 144.55 97.595 145.755C98.08 146.025 98.565 146.3 99.08 146.565L100.955 144.69C100.21 144.35 99.525 143.965 98.825 143.575C96.5 142.265 94.095 140.915 89.325 140.915C84.555 140.915 82.15 142.27 79.825 143.575C77.685 144.78 75.665 145.915 71.55 145.915C67.435 145.915 65.415 144.78 63.275 143.575C60.95 142.265 58.545 140.915 53.775 140.915C49.005 140.915 46.6 142.27 44.275 143.575C42.135 144.78 40.12 145.915 36.005 145.915V148.415C40.775 148.415 43.18 147.06 45.505 145.755C47.635 144.55 49.655 143.415 53.77 143.415ZM53.77 153.595C57.885 153.595 59.905 154.73 62.045 155.935C64.37 157.245 66.775 158.595 71.545 158.595C76.315 158.595 78.72 157.24 81.045 155.935C83.185 154.73 85.205 153.595 89.32 153.595C90.275 153.595 91.12 153.655 91.875 153.765L94 151.64C92.715 151.305 91.2 151.09 89.32 151.09C84.55 151.09 82.145 152.445 79.82 153.75C77.68 154.955 75.66 156.09 71.545 156.09C67.43 156.09 65.41 154.955 63.27 153.75C60.945 152.44 58.54 151.09 53.77 151.09C49 151.09 46.595 152.445 44.27 153.75C42.13 154.955 40.115 156.09 36 156.09V158.59C40.77 158.59 43.175 157.235 45.5 155.93C47.635 154.73 49.655 153.595 53.77 153.595ZM53.77 163.775C57.885 163.775 59.905 164.91 62.045 166.115C64.37 167.425 66.775 168.775 71.545 168.775C74.365 168.775 76.355 168.3 77.995 167.645L83.455 162.185C82.06 162.68 80.93 163.31 79.82 163.935C77.68 165.14 75.66 166.275 71.545 166.275C67.43 166.275 65.41 165.14 63.27 163.935C60.945 162.625 58.54 161.275 53.77 161.275C49 161.275 46.595 162.63 44.27 163.935C42.13 165.14 40.115 166.275 36 166.275V168.775C40.77 168.775 43.175 167.42 45.5 166.115C47.635 164.91 49.655 163.775 53.77 163.775ZM62.045 176.295C63.52 177.125 65.03 177.97 67.155 178.48L69.31 176.325C66.62 175.995 64.98 175.08 63.27 174.115C60.945 172.805 58.54 171.455 53.77 171.455C49 171.455 46.595 172.81 44.27 174.115C42.13 175.32 40.115 176.455 36 176.455V178.955C40.77 178.955 43.175 177.6 45.5 176.295C47.64 175.09 49.655 173.955 53.77 173.955C57.885 173.955 59.905 175.095 62.045 176.295ZM135.245 147.94H130.345C132.14 173.64 153.615 194 179.765 194H216V198H150.97L163.275 210.355C164.235 211.32 164.51 212.7 163.985 213.96C163.465 215.22 162.29 216 160.93 216H101.855C97.765 216 94.44 212.675 94.44 208.585L94.45 194H97.95C104.585 194 110.28 191.53 114.41 186.86C119.3 181.335 121.78 173.08 121.78 162.325V147.94H110.425L112.925 145.44H121.78V136.585L124.28 134.085V162.325C124.28 173.71 121.59 182.52 116.28 188.52C113.27 191.925 109.52 194.275 105.24 195.505H169.59C145.745 190.765 127.715 169.68 127.715 144.46V130.65L130.215 128.15V144.46C130.215 144.79 130.22 145.115 130.225 145.44H156.08C145.34 143.045 137.6 136.33 132.98 125.38L134.9 123.46C140.31 137.055 150.645 143.94 165.68 143.94H173.86L179.505 151.65H216V155.65H135.245V147.94ZM96.945 204.5H109.44V198H96.95L96.945 204.5ZM101.855 213.5H109.44V207H96.945V208.585C96.94 211.295 99.145 213.5 101.855 213.5ZM126.14 207H111.94V213.5H126.14V207ZM126.14 198H111.94V204.5H126.14V198ZM142.835 207H128.635V213.5H142.835V207ZM142.835 198H128.635V204.5H142.835V198ZM156.405 207H145.34V213.5H160.93C161.415 213.5 161.615 213.15 161.675 213C161.735 212.85 161.845 212.465 161.5 212.12L156.405 207ZM147.44 198H145.335V204.5H153.91L147.44 198ZM168.055 151.65H176.42L173.705 147.94H170.775L168.055 151.65ZM142.72 151.65H164.955L167.67 147.94H145.435L142.72 151.65ZM137.745 151.65H139.625L142.34 147.94H137.745V151.65ZM199.415 55.415L196.585 52.585L52.585 196.585L55.415 199.415L199.415 55.415Z" fill="#FFF0DA"/>
</svg>
